<?xml version="1.0" standalone="no"?>
<!DOCTYPE svg PUBLIC "-//W3C//DTD SVG 20010904//EN"
 "http://www.w3.org/TR/2001/REC-SVG-20010904/DTD/svg10.dtd">
<svg version="1.0" xmlns="http://www.w3.org/2000/svg"
 width="1236.000000pt" height="1236.000000pt" viewBox="0 0 1236.000000 1236.000000"
 preserveAspectRatio="xMidYMid meet">
<metadata>
Created by potrace 1.14, written by Peter Selinger 2001-2017
</metadata>
<g transform="translate(0.000000,1236.000000) scale(0.100000,-0.100000)"
fill="#000000" stroke="none">
<path d="M0 6180 l0 -6180 6180 0 6180 0 0 6180 0 6180 -6180 0 -6180 0 0
-6180z m4728 4918 c17 -17 15 -28 -4 -28 -8 0 -12 5 -8 11 3 6 0 15 -7 20 -8
5 -9 9 -3 9 5 0 15 -5 22 -12z m112 -18 c0 -12 -8 -12 -35 0 -18 8 -17 9 8 9
15 1 27 -3 27 -9z m104 -29 c-5 -6 -34 20 -34 30 0 5 8 1 18 -8 10 -10 17 -20
16 -22z m-228 7 c10 -12 14 -19 8 -15 -7 4 -10 -3 -7 -21 4 -25 3 -25 -16 8
-11 19 -20 38 -21 43 0 14 17 7 36 -15z m-134 -15 c-11 -19 2 -68 26 -96 22
-24 11 -29 -16 -7 -13 11 -24 28 -25 40 -1 11 -4 20 -7 20 -3 0 -14 6 -24 13
-17 12 -16 15 15 30 42 21 42 21 31 0z m228 -13 c13 0 38 -52 33 -67 -3 -7
-10 -13 -17 -13 -7 0 -12 -10 -12 -22 1 -13 -4 -22 -11 -21 -6 1 -14 -4 -17
-13 -3 -8 -2 -12 3 -9 5 3 12 1 16 -5 3 -5 -7 -12 -22 -16 -15 -4 -33 -11 -39
-16 -8 -5 -13 -2 -17 11 -3 13 -1 18 8 15 23 -9 21 30 -2 49 -24 19 -31 47
-12 47 6 0 9 -6 6 -13 -3 -7 9 -21 26 -30 29 -17 30 -17 16 0 -8 10 -19 23
-26 30 -6 7 -9 21 -6 32 4 16 12 19 44 17 21 -2 36 1 33 5 -3 5 -14 9 -25 9
-17 0 -18 3 -7 23 10 19 13 20 16 5 2 -10 8 -18 12 -18z m40 -6 c0 -3 -7 -1
-15 6 -8 7 -15 17 -15 22 0 5 7 3 15 -6 8 -8 15 -18 15 -22z m282 -19 c30 -36
58 -99 72 -165 8 -36 15 -58 15 -50 2 24 21 -10 21 -37 0 -13 8 -24 19 -28 11
-3 22 -14 25 -23 3 -9 3 15 1 53 -4 81 -12 113 -33 138 -31 35 4 15 43 -25 36
-36 37 -39 10 -22 -16 10 13 -23 65 -74 52 -50 98 -92 101 -92 13 0 179 -175
179 -190 0 -13 2 -13 10 0 8 12 13 11 34 -9 13 -13 23 -28 20 -35 -2 -6 10
-17 28 -24 27 -10 30 -14 18 -23 -13 -9 -13 -10 0 -6 8 2 33 -10 55 -27 25
-19 34 -23 25 -11 -10 14 -7 13 13 -4 15 -14 25 -27 22 -29 -7 -7 15 -32 29
-32 6 0 3 5 -8 11 -10 6 -14 14 -9 18 5 3 25 34 43 68 42 81 177 202 264 238
37 16 151 21 128 7 -9 -6 -12 -31 -9 -86 l3 -78 -38 -24 c-21 -13 -40 -24 -42
-24 -3 0 -17 -12 -33 -27 -28 -29 -42 -101 -21 -114 5 -3 -6 -9 -26 -13 -25
-5 -40 -15 -46 -29 -13 -30 -35 -57 -47 -57 -6 0 -16 7 -23 15 -7 9 -19 14
-26 11 -7 -3 -18 2 -24 10 -21 24 -29 16 -15 -13 8 -16 18 -63 23 -106 9 -67
8 -84 -10 -130 -25 -67 -32 -73 -23 -20 6 36 3 46 -17 66 -13 13 -29 22 -36
19 -15 -5 -42 57 -42 95 0 20 -10 36 -34 55 -20 16 -37 24 -41 18 -3 -6 -2
-10 2 -10 5 0 17 -13 26 -30 10 -16 14 -30 9 -30 -5 0 -19 14 -32 30 -24 32
-46 41 -36 15 8 -22 -2 -18 -14 5 -6 11 -7 20 -3 19 24 -4 44 3 40 14 -2 6
-12 11 -21 11 -12 -1 -15 3 -11 16 5 15 2 17 -14 13 -16 -4 -19 -11 -15 -29 4
-15 2 -24 -5 -24 -6 0 -11 8 -11 18 -1 9 -22 35 -47 57 -41 35 -46 37 -40 16
5 -21 4 -22 -12 -7 -19 17 -56 22 -46 6 3 -5 1 -10 -4 -10 -6 0 -11 5 -11 10
0 6 -7 10 -16 10 -8 0 -12 -5 -8 -11 3 -6 -8 -3 -25 5 -17 9 -35 25 -41 37 -8
14 -19 19 -38 17 -17 -2 -26 2 -24 10 1 6 -2 12 -7 12 -5 0 -26 16 -45 35 -20
19 -40 35 -46 35 -5 0 -12 10 -16 23 -7 21 -7 21 -15 2 -7 -19 -8 -19 -8 3 -1
13 -5 20 -11 17 -13 -8 -13 -11 10 65 23 76 25 90 8 67 -12 -16 -16 -15 -49 8
l-37 24 -6 -22 c-3 -12 -12 -31 -21 -42 -13 -16 -16 -17 -11 -3 3 10 1 20 -4
23 -6 4 -10 0 -10 -7 0 -8 -4 -6 -11 4 -13 23 -16 102 -5 153 11 57 23 219 17
225 -3 3 -17 21 -30 40 -20 28 -21 32 -6 20 11 -8 27 -24 37 -35z m-496 15 c0
-14 -7 -20 -21 -19 -11 0 -14 3 -7 6 6 2 12 11 12 19 0 8 4 14 8 14 4 0 8 -9
8 -20z m54 -20 c-1 -12 -3 -12 -14 2 -7 10 -16 15 -19 11 -4 -3 -7 1 -7 10 0
15 3 15 20 5 11 -7 20 -20 20 -28z m236 0 c5 5 9 -11 10 -41 0 -27 -2 -49 -6
-49 -12 0 -50 59 -50 78 0 27 13 36 26 18 6 -9 14 -12 20 -6z m-381 -69 c-2
-23 0 -28 11 -24 8 3 11 10 7 17 -4 7 -2 7 7 -1 10 -9 10 -15 -4 -28 -17 -17
-9 -46 17 -61 9 -6 9 -5 0 7 -16 20 11 59 29 41 10 -10 10 -15 -2 -23 -13 -9
-12 -10 2 -5 11 3 26 -6 43 -25 30 -37 33 -54 5 -39 -18 10 -19 8 -11 -13 6
-14 5 -30 -1 -40 -7 -14 -4 -22 16 -38 14 -11 26 -27 26 -35 0 -8 5 -14 10
-14 6 0 10 -7 10 -15 0 -8 5 -15 11 -15 5 0 8 -4 4 -9 -3 -5 0 -13 6 -17 8 -5
9 -3 4 6 -6 10 -3 12 11 7 16 -6 17 -5 4 6 -8 6 -16 18 -17 24 -2 7 -20 29
-40 49 l-38 36 30 -7 c21 -4 26 -3 15 4 -18 12 -7 26 15 18 8 -4 15 -16 15
-27 0 -14 -4 -19 -12 -14 -7 5 -8 3 -4 -5 5 -7 14 -10 22 -7 8 3 14 -1 14 -9
0 -8 7 -15 16 -15 9 0 12 5 8 13 -12 21 60 -66 78 -95 17 -27 17 -28 -1 -28
-10 0 -24 -7 -31 -15 -7 -8 -19 -15 -26 -15 -19 0 -18 -16 1 -24 10 -4 20 3
27 19 13 28 36 33 45 9 8 -21 -57 -89 -69 -71 -6 9 -8 9 -8 0 0 -7 -7 -10 -15
-7 -11 5 -13 2 -8 -12 5 -13 3 -16 -10 -11 -10 4 -14 2 -11 -6 5 -15 -51 -41
-67 -31 -7 4 -9 3 -6 -3 7 -11 -15 -21 -84 -43 -45 -13 -148 1 -188 26 -69 43
-100 113 -101 220 0 115 49 252 85 238 11 -5 15 2 15 26 0 31 24 73 66 114 18
18 38 11 30 -10 -3 -8 1 -14 10 -14 8 0 13 -4 9 -9 -3 -5 -1 -12 4 -15 5 -3
11 4 15 17 4 16 -1 27 -19 43 -14 11 -22 23 -19 27 4 4 17 -5 30 -18 16 -17
22 -34 19 -54z m432 49 c0 -17 -4 -29 -9 -28 -5 2 -9 7 -9 11 1 4 1 16 1 27 0
11 4 20 8 20 5 0 9 -14 9 -30z m-313 5 c3 -8 1 -15 -4 -15 -6 0 -10 7 -10 15
0 8 2 15 4 15 2 0 6 -7 10 -15z m53 -75 c13 0 23 -4 23 -10 0 -5 -15 -10 -34
-10 -19 0 -38 -5 -42 -11 -5 -8 1 -10 18 -6 22 6 26 3 30 -18 3 -14 1 -25 -5
-25 -5 0 -3 -7 4 -16 8 -10 15 -12 17 -5 2 6 12 11 23 11 12 0 16 5 13 15 -4
8 -2 15 4 15 5 0 12 -8 16 -17 3 -10 9 -24 12 -32 5 -10 2 -12 -9 -8 -10 4
-17 -1 -20 -14 -7 -26 -17 -24 -55 11 -26 23 -32 35 -27 53 5 17 4 18 -4 7 -5
-8 -12 -12 -13 -10 -2 3 -12 18 -22 33 -18 29 -18 29 4 22 17 -5 21 -3 18 6
-3 8 -13 13 -22 12 -12 -1 -15 4 -12 14 4 9 -2 23 -14 33 -11 9 -17 20 -14 23
3 3 25 -12 47 -34 23 -22 51 -39 64 -39z m249 13 c-7 -7 -26 7 -26 19 0 6 6 6
15 -2 9 -7 13 -15 11 -17z m-79 11 c-3 -3 -12 -4 -19 -1 -8 3 -5 6 6 6 11 1
17 -2 13 -5z m-47 -75 c0 -10 -7 -19 -15 -19 -8 0 -18 0 -22 -1 -4 0 -9 4 -11
10 -2 5 5 8 16 6 16 -3 19 1 14 17 -3 14 -1 19 6 14 7 -4 12 -16 12 -27z m80
-36 c0 -20 -7 -36 -17 -42 -11 -7 -14 -14 -8 -18 14 -11 18 -83 5 -83 -6 0
-15 11 -22 25 -14 32 -28 23 -23 -16 4 -33 15 -53 15 -27 0 10 10 15 29 15 21
0 33 -8 45 -28 9 -15 12 -30 7 -33 -5 -3 -12 4 -16 17 -6 19 -8 20 -12 4 -5
-18 -5 -18 -26 0 l-21 18 17 -27 c18 -28 23 -78 9 -78 -5 0 -30 28 -56 61 -36
46 -45 64 -35 70 10 6 10 11 -1 24 -12 14 -12 18 1 25 10 7 16 4 21 -8 5 -14
7 -13 7 4 1 28 27 38 40 16 10 -16 10 -16 11 0 0 9 -5 20 -10 23 -6 4 -8 11
-5 16 4 5 1 9 -4 9 -6 0 -11 7 -11 15 0 8 6 12 15 9 11 -5 13 1 8 31 -6 36 -5
37 16 24 14 -10 21 -24 21 -46z m17 -5 c-3 -7 -5 -2 -5 12 0 14 2 19 5 13 2
-7 2 -19 0 -25z m449 -29 c20 -22 23 -28 8 -19 -18 11 -50 50 -41 50 2 0 16
-14 33 -31z m-668 -21 c-5 -15 -23 -11 -26 6 -2 11 2 14 13 10 9 -4 14 -11 13
-16z m122 12 c0 -5 -5 -10 -11 -10 -5 0 -7 5 -4 10 3 6 8 10 11 10 2 0 4 -4 4
-10z m-40 -32 c0 -6 -7 -8 -15 -4 -18 7 -19 -5 -2 -24 10 -12 9 -12 -4 -2 -14
10 -18 9 -23 -4 -4 -9 -9 -15 -12 -12 -9 10 30 66 43 61 7 -3 13 -10 13 -15z
m139 -46 c1 -7 -3 -10 -9 -7 -5 3 -10 18 -9 33 0 24 1 25 9 7 5 -11 9 -26 9
-33z m515 19 c-2 -3 -12 3 -22 13 -16 17 -16 18 5 5 12 -7 20 -15 17 -18z
m-494 9 c0 -5 -4 -10 -10 -10 -5 0 -10 5 -10 10 0 6 5 10 10 10 6 0 10 -4 10
-10z m2129 -19 c8 -5 9 -11 3 -15 -5 -3 -15 1 -22 9 -14 16 -3 20 19 6z m167
-128 c-3 -3 2 -12 12 -19 29 -22 -6 -17 -44 7 -35 21 -45 36 -19 25 8 -3 15
-1 15 5 0 6 8 6 21 -1 11 -7 18 -14 15 -17z m88 -30 l21 -13 -22 0 c-23 0 -63
27 -63 43 0 4 10 2 21 -5 12 -7 31 -19 43 -25z m-1601 -84 c15 -12 35 -34 44
-48 19 -31 -76 55 -127 114 l-34 40 44 -41 c25 -23 57 -52 73 -65z m622 81 c3
-5 -3 -10 -15 -10 -12 0 -18 5 -15 10 3 6 10 10 15 10 5 0 12 -4 15 -10z m896
-15 c34 -16 34 -16 4 -10 -16 4 -34 11 -39 16 -14 13 -3 11 35 -6z m84 -31
c41 -27 30 -57 -13 -35 -9 5 -30 15 -47 21 l-30 13 25 8 c37 11 39 10 65 -7z
m-660 -4 c3 -5 -1 -10 -9 -10 -9 0 -16 5 -16 10 0 6 4 10 9 10 6 0 13 -4 16
-10z m62 -31 c8 -2 9 -9 4 -17 -7 -11 -11 -10 -25 3 -9 9 -16 24 -16 33 1 15
2 16 13 1 7 -9 17 -18 24 -20z m685 -18 c4 -3 3 -13 -2 -21 -8 -13 -10 -12
-10 3 0 9 -6 17 -14 17 -8 0 -18 5 -22 11 -7 12 34 3 48 -10z m-660 -36 c40
-14 73 -25 74 -25 1 0 -4 -16 -10 -35 -6 -19 -16 -33 -22 -31 -5 2 -19 -9 -30
-25 -10 -16 -24 -27 -29 -25 -7 2 -10 -15 -9 -48 5 -97 26 -177 56 -212 10
-11 18 -25 18 -31 0 -6 4 -13 8 -15 34 -14 90 -174 57 -162 -11 5 -23 -14 -45
-73 -7 -18 -19 -33 -26 -33 -8 0 -14 -6 -14 -14 0 -8 -13 -20 -30 -28 -16 -7
-30 -16 -30 -20 0 -4 -13 -2 -29 3 -32 11 -45 42 -30 72 6 10 9 28 6 38 -4 15
0 19 21 19 20 0 23 3 13 9 -9 6 -11 15 -6 27 13 30 14 56 3 94 -24 81 -148
300 -169 300 -5 0 -9 9 -9 19 0 12 -11 23 -31 30 -38 13 -30 33 9 21 36 -11
82 -34 82 -40 0 -3 11 -6 25 -5 29 0 45 19 45 55 0 19 3 21 12 12 18 -18 31
-14 25 8 -3 11 -1 20 4 20 5 0 9 7 9 15 0 8 6 15 13 15 8 0 7 4 -3 10 -13 8
-13 10 1 10 9 0 23 8 30 17 12 15 12 16 -1 8 -23 -15 -40 -14 -40 0 0 7 -7 15
-15 19 -13 5 -22 26 -11 26 2 0 37 -11 78 -25z m628 15 c0 -5 -7 -7 -15 -4 -8
4 -15 8 -15 10 0 2 7 4 15 4 8 0 15 -4 15 -10z m81 -17 c13 -15 12 -15 -8 -4
-24 12 -29 21 -14 21 5 0 15 -7 22 -17z m-115 -18 c4 -8 14 -15 24 -15 11 0
22 -4 25 -10 4 -6 -1 -7 -12 -4 -15 5 -15 3 2 -10 11 -8 26 -21 34 -27 7 -7
25 -13 38 -15 14 -1 37 -14 52 -28 18 -17 31 -22 41 -16 12 6 16 4 17 -11 2
-17 -1 -18 -13 -9 -19 17 -18 7 6 -36 22 -39 20 -60 -2 -25 -7 12 -17 21 -21
21 -11 0 -95 70 -153 128 -24 23 -48 42 -54 42 -5 0 -10 7 -10 15 0 8 5 15 10
15 6 0 13 -7 16 -15z m-489 -37 c-3 -8 -6 -5 -6 6 -1 11 2 17 5 13 3 -3 4 -12
1 -19z m717 -54 c5 -14 4 -15 -9 -4 -17 14 -19 20 -6 20 5 0 12 -7 15 -16z
m-132 -42 c44 -33 67 -62 50 -62 -7 0 -92 67 -122 96 -27 27 21 4 72 -34z m99
31 c13 -16 12 -17 -3 -4 -10 7 -18 15 -18 17 0 8 8 3 21 -13z m-3147 -9 c4 -9
4 -19 1 -22 -3 -3 -5 1 -5 9 0 12 -2 12 -10 -1 -5 -9 -5 -19 2 -27 7 -9 7 -17
-2 -28 -7 -9 -10 -18 -7 -21 3 -3 12 3 19 15 14 22 28 28 28 10 0 -13 -111
-151 -117 -145 -3 2 0 13 6 24 6 11 7 22 4 26 -3 3 -1 6 6 6 7 0 9 5 5 12 -4
6 -3 8 3 5 16 -10 49 31 36 44 -6 6 -9 19 -6 28 4 13 2 13 -7 -2 -6 -9 -8 -21
-5 -27 3 -5 -5 -14 -17 -21 -19 -9 -21 -9 -10 2 24 26 11 28 -24 4 -20 -13
-52 -28 -73 -31 -20 -4 -60 -15 -90 -26 -30 -10 -56 -16 -59 -14 -7 7 50 57
76 67 13 5 51 9 85 9 l62 1 40 59 c22 33 43 60 46 60 4 0 10 -7 13 -16z m45
-37 c6 -8 8 -17 4 -20 -7 -8 -33 11 -33 24 0 13 16 11 29 -4z m3081 -89 c0
-10 -32 6 -72 36 -47 34 -31 37 22 4 28 -17 50 -35 50 -40z m-94 11 c24 -18
41 -36 38 -41 -3 -5 0 -7 6 -6 6 2 19 -8 28 -21 l17 -25 -30 20 c-28 18 -117
104 -107 104 2 0 23 -14 48 -31z m-1116 -34 c0 -17 -50 -45 -80 -45 -43 0 -12
32 49 51 14 4 27 8 29 8 1 1 2 -6 2 -14z m1136 -37 c3 -10 10 -15 16 -12 6 4
8 2 5 -3 -4 -6 0 -24 8 -39 8 -15 12 -30 10 -32 -8 -9 -33 19 -39 43 -4 14
-11 25 -16 25 -6 0 -10 7 -10 15 0 8 -3 15 -8 15 -4 0 -13 9 -20 21 -13 21
-13 21 17 3 17 -10 34 -26 37 -36z m234 21 c0 -6 -4 -7 -10 -4 -5 3 -10 11
-10 16 0 6 5 7 10 4 6 -3 10 -11 10 -16z m-1588 -78 c44 -97 29 -248 -33 -341
-17 -25 -28 -35 -24 -23 3 12 1 24 -5 28 -7 4 -7 12 0 25 14 27 12 34 -5 20
-8 -7 -15 -9 -15 -5 0 5 -8 -2 -19 -13 -31 -37 -31 -25 0 43 42 93 61 186 57
273 -3 64 -2 71 10 55 8 -10 23 -38 34 -62z m1288 38 c0 -6 -4 -7 -10 -4 -5 3
-10 11 -10 16 0 6 5 7 10 4 6 -3 10 -11 10 -16z m-1574 -16 c-7 -7 -26 7 -26
19 0 6 6 6 15 -2 9 -7 13 -15 11 -17z m-1729 -24 c10 -22 8 -33 -8 -60 -10
-19 -23 -43 -28 -54 -24 -55 -33 -72 -51 -100 -11 -17 -21 -51 -23 -75 -2 -25
-13 -67 -25 -94 -12 -27 -22 -52 -22 -56 0 -4 -9 -15 -20 -25 -11 -10 -20 -28
-20 -41 0 -13 -8 -29 -18 -36 -10 -7 -21 -21 -25 -31 -4 -11 -16 -21 -28 -24
-16 -5 -20 -12 -17 -39 1 -19 -4 -42 -12 -52 -21 -26 -40 -60 -40 -72 0 -10
-66 -109 -79 -120 -4 -3 -33 -41 -66 -85 -32 -44 -64 -83 -71 -87 -6 -4 -15
-19 -18 -34 -4 -14 -29 -48 -56 -75 -28 -28 -50 -55 -50 -60 0 -6 -20 -30 -45
-55 -25 -24 -45 -49 -45 -56 0 -17 -44 -68 -58 -68 -6 0 -9 -7 -6 -15 4 -9 0
-15 -9 -15 -24 0 -59 -50 -47 -65 8 -9 2 -16 -20 -25 -16 -7 -27 -16 -24 -21
2 -5 -4 -14 -15 -20 -10 -7 -17 -18 -14 -25 2 -7 -1 -23 -8 -36 -7 -13 -12
-26 -11 -30 1 -5 -5 -8 -14 -8 -8 0 -12 5 -9 10 3 6 1 10 -5 10 -7 0 -11 -14
-9 -32 2 -44 -10 -78 -29 -78 -8 0 -13 -3 -9 -6 3 -4 0 -13 -8 -21 -8 -8 -15
-22 -15 -32 0 -10 -9 -26 -20 -36 -11 -10 -20 -26 -20 -35 0 -10 -12 -38 -26
-64 -14 -25 -24 -52 -21 -58 2 -7 0 -21 -5 -31 -5 -10 -16 -52 -24 -95 -8 -42
-21 -82 -29 -88 -8 -6 -12 -13 -9 -16 2 -3 -2 -8 -9 -11 -11 -4 -13 0 -9 15 3
14 1 19 -6 14 -7 -4 -12 -20 -12 -37 0 -16 -4 -29 -10 -29 -5 0 -10 -5 -10
-11 0 -5 5 -7 10 -4 6 3 10 -1 10 -9 0 -8 -5 -18 -12 -22 -7 -4 -8 -3 -4 4 6
11 1 13 -21 11 -5 0 -7 -7 -5 -16 2 -9 -2 -13 -9 -11 -21 7 -48 -23 -43 -48 3
-16 0 -24 -9 -24 -8 0 -22 -15 -32 -34 -11 -19 -27 -37 -37 -39 -12 -4 -16
-11 -12 -22 6 -14 3 -16 -14 -10 -16 5 -22 2 -22 -10 0 -8 -11 -20 -24 -26
-13 -6 -29 -22 -35 -35 -6 -13 -16 -24 -23 -24 -9 0 -8 -3 2 -10 9 -6 10 -10
3 -10 -6 0 -14 -14 -18 -31 -4 -17 -13 -33 -21 -36 -8 -3 -14 -9 -14 -15 0 -5
4 -7 9 -4 4 3 6 -6 3 -19 -2 -14 -8 -23 -12 -20 -4 2 -17 -7 -29 -21 -12 -14
-29 -23 -36 -20 -9 3 -12 0 -9 -8 3 -7 -2 -20 -10 -29 -11 -11 -15 -30 -13
-66 2 -29 -2 -59 -8 -69 -6 -9 -11 -24 -10 -32 0 -8 -12 -26 -27 -40 -14 -14
-32 -45 -39 -70 l-12 -45 -18 40 c-30 66 -33 118 -13 223 9 53 23 106 30 117
7 11 15 35 19 54 11 52 90 214 167 338 37 61 68 116 68 122 0 6 4 11 9 11 5 0
16 17 25 38 29 64 78 157 86 162 4 3 22 34 40 69 17 35 55 100 84 145 29 44
59 92 66 106 7 14 16 27 20 30 3 3 16 21 28 41 45 75 243 337 370 493 113 137
201 270 268 407 59 119 94 165 156 205 41 26 103 124 154 244 17 41 48 103 68
137 49 83 156 217 165 207 4 -5 12 -21 18 -35z m3294 29 c13 -7 47 -37 74 -67
30 -32 41 -49 27 -42 -12 7 -28 21 -35 31 -6 11 -17 20 -24 20 -14 0 -73 49
-73 61 0 12 3 11 31 -3z m539 -8 c0 -5 -2 -10 -4 -10 -3 0 -8 5 -11 10 -3 6
-1 10 4 10 6 0 11 -4 11 -10z m-2062 -51 c-3 -8 -7 -3 -11 10 -4 17 -3 21 5
13 5 -5 8 -16 6 -23z m2012 16 c0 -8 -2 -15 -4 -15 -2 0 -6 7 -10 15 -3 8 -1
15 4 15 6 0 10 -7 10 -15z m-490 -35 c6 -11 8 -20 6 -20 -3 0 -10 9 -16 20 -6
11 -8 20 -6 20 3 0 10 -9 16 -20z m-6 -39 c-6 -6 -44 30 -44 42 0 5 11 -1 24
-14 14 -13 23 -26 20 -28z m119 -38 c16 -8 27 -17 24 -19 -7 -7 -106 27 -113
38 -8 13 52 0 89 -19z m42 -53 c3 -5 2 -10 -4 -10 -5 0 -13 5 -16 10 -3 6 -2
10 4 10 5 0 13 -4 16 -10z m270 0 c3 -5 1 -10 -4 -10 -6 0 -11 5 -11 10 0 6 2
10 4 10 3 0 8 -4 11 -10z m-3395 -36 c0 -21 -4 -33 -10 -29 -5 3 -10 19 -10
36 0 16 5 29 10 29 6 0 10 -16 10 -36z m3128 -8 c19 -10 32 -20 29 -22 -8 -9
-58 16 -85 42 -26 27 -26 27 -2 12 14 -8 40 -23 58 -32z m365 -62 c4 -4 7 -12
7 -18 -1 -15 -22 22 -37 63 -6 19 -9 39 -5 45 4 6 11 -10 17 -36 5 -25 13 -50
18 -54z m-84 40 c3 -16 1 -17 -13 -5 -19 16 -21 34 -3 29 6 -3 14 -13 16 -24z
m-344 -34 c3 -5 2 -10 -4 -10 -5 0 -13 5 -16 10 -3 6 -2 10 4 10 5 0 13 -4 16
-10z m-178 -61 c63 -24 110 -95 123 -188 11 -73 -15 -133 -95 -219 -76 -82
-109 -105 -137 -96 -20 6 -17 9 27 30 62 31 98 64 147 139 38 58 40 63 36 131
-3 62 -8 78 -38 123 -25 36 -45 54 -70 62 -19 6 -39 15 -44 20 -14 13 16 11
51 -2z m-1270 -21 c-3 -8 -6 -5 -6 6 -1 11 2 17 5 13 3 -3 4 -12 1 -19z m-17
-8 c0 -5 -7 -7 -15 -4 -8 4 -12 10 -9 15 6 11 24 2 24 -11z m1502 0 l22 -20
-22 0 c-12 0 -22 2 -22 4 0 2 -3 11 -6 20 -8 22 2 20 28 -4z m-354 -42 c-8
-13 -22 -45 -32 -71 -22 -60 -32 -56 -11 4 16 46 41 89 51 89 4 0 0 -10 -8
-22z m709 -60 c-3 -8 -6 -5 -6 6 -1 11 2 17 5 13 3 -3 4 -12 1 -19z m-824 -58
c34 0 42 -28 20 -74 -21 -46 -31 -46 -35 2 -2 20 -8 37 -15 37 -15 0 -19 5
-27 40 -7 28 -7 29 12 12 10 -9 30 -17 45 -17z m257 11 c17 -32 12 -141 -9
-187 -32 -71 -61 -74 -36 -4 18 52 19 107 2 140 -10 18 -11 32 -4 48 12 27 33
29 47 3z m-95 -11 c7 -12 -2 -12 -30 0 -19 8 -19 9 2 9 12 1 25 -3 28 -9z
m-224 -63 c-8 -8 -11 -3 -11 19 1 25 2 27 11 11 8 -14 8 -22 0 -30z m879 -20
c0 -5 -4 -5 -10 -2 -5 3 -10 14 -10 23 0 15 2 15 10 2 5 -8 10 -19 10 -23z
m42 -19 c-10 -22 -11 -21 -11 12 -1 26 2 31 11 22 8 -8 8 -17 0 -34z m-952
-49 c0 -10 -4 -19 -10 -19 -5 0 -10 12 -10 26 0 14 4 23 10 19 6 -3 10 -15 10
-26z m42 -41 c6 -13 5 -18 -6 -18 -17 0 -27 25 -19 47 5 14 8 14 11 2 3 -7 9
-22 14 -31z m124 1 c3 -6 -6 -23 -20 -38 -15 -14 -26 -21 -24 -16 1 6 -3 20
-10 31 -6 12 -8 24 -5 28 10 10 51 7 59 -5z m-186 -42 c0 -7 -7 -23 -16 -35
-8 -12 -13 -26 -10 -31 3 -5 -1 -14 -9 -21 -13 -11 -15 -8 -15 15 0 28 28 85
42 85 4 0 8 -6 8 -13z m871 -49 c21 -41 39 -166 22 -155 -6 4 -13 28 -16 54
-3 27 -12 66 -20 88 -8 22 -18 49 -22 60 -6 16 -5 17 4 5 7 -8 21 -32 32 -52z
m-74 20 c-3 -7 -5 -2 -5 12 0 14 2 19 5 13 2 -7 2 -19 0 -25z m-617 -8 c4 0
15 -12 25 -26 14 -22 15 -28 4 -35 -21 -13 -55 -11 -94 8 -52 25 -43 40 19 33
14 -1 17 3 12 15 -5 13 -2 16 10 11 8 -3 19 -6 24 -6z m641 -53 c-13 -13 -15
21 -3 50 6 15 8 13 10 -11 2 -16 -1 -33 -7 -39z m-2895 26 c-5 -17 -3 -29 6
-34 7 -4 9 -11 5 -16 -5 -4 -17 3 -27 17 -17 23 -17 26 -3 42 22 25 26 23 19
-9z m2260 -78 c-11 -31 -88 -136 -107 -148 -20 -12 -27 -47 -9 -47 6 0 10 7
10 15 0 8 7 15 15 15 8 0 15 3 15 8 0 4 11 12 25 19 23 10 36 1 16 -11 -4 -3
-16 -27 -26 -53 -10 -26 -26 -62 -37 -80 -17 -29 -22 -31 -39 -20 -15 9 -18
19 -13 42 3 17 11 35 16 42 13 16 1 34 -19 31 -20 -4 -63 64 -45 70 7 2 12 7
12 12 0 12 93 102 115 111 11 4 33 8 49 8 21 1 27 -3 22 -14z m672 -40 c0 -16
-2 -15 -8 5 -11 34 -11 60 0 35 5 -11 8 -29 8 -40z m-687 -48 c-10 -9 -11 -8
-5 6 3 10 9 15 12 12 3 -3 0 -11 -7 -18z m726 -19 c-3 -8 -6 -5 -6 6 -1 11 2
17 5 13 3 -3 4 -12 1 -19z m-3238 -119 c-7 -15 -8 -19 0 -15 6 4 20 2 31 -4
16 -9 25 -8 36 1 12 10 13 9 8 -5 -3 -9 -1 -16 5 -16 6 0 11 4 11 9 0 5 8 17
17 27 16 16 18 16 28 -9 l11 -26 28 24 c16 14 30 25 31 25 0 0 -1 -17 -3 -37
l-3 -38 20 24 c12 13 21 29 21 37 0 8 5 14 10 14 10 0 14 -21 11 -47 -3 -19
10 -16 36 9 19 18 23 19 23 5 0 -9 -5 -19 -10 -22 -6 -4 -8 -11 -5 -16 4 -5 1
-9 -4 -9 -6 0 -11 -4 -11 -9 0 -10 68 7 88 23 8 5 22 10 33 11 14 1 18 -3 13
-17 -7 -22 19 -24 57 -4 24 12 26 12 21 -6 -4 -16 -1 -18 24 -13 l29 6 -23
-20 c-31 -27 -21 -42 21 -30 44 13 46 12 45 -13 -2 -28 -46 -78 -69 -78 -10 0
-21 -5 -25 -12 -5 -8 -2 -9 9 -5 22 8 22 -10 1 -30 -12 -12 -21 -14 -33 -7
-11 7 -27 6 -51 -3 l-35 -14 32 5 c17 3 45 1 61 -3 22 -7 36 -5 51 6 12 8 21
10 21 4 0 -6 -16 -21 -35 -33 -25 -17 -33 -28 -29 -43 6 -26 -60 -75 -78 -57
-9 9 -7 12 10 12 12 0 22 4 22 8 0 10 -20 9 -67 -2 -18 -4 -33 -12 -33 -18 0
-6 -11 -3 -25 6 -19 12 -30 14 -52 5 -15 -5 -38 -7 -51 -4 -17 4 -23 2 -20 -7
3 -7 14 -14 25 -16 15 -2 19 -9 16 -26 -4 -17 1 -25 16 -29 24 -6 28 -39 6
-57 -19 -16 -40 -3 -24 16 9 11 8 14 -8 14 -10 0 -24 -5 -31 -12 -9 -9 -12 -6
-12 16 0 24 -2 27 -15 16 -8 -7 -15 -19 -15 -26 0 -17 -5 -17 -30 -4 -26 14
-139 15 -153 1 -8 -8 0 -11 33 -12 25 -1 51 -1 58 0 13 2 15 -8 4 -25 -11 -17
-51 -36 -62 -29 -5 3 -12 1 -15 -5 -9 -14 -138 -10 -147 4 -6 7 -10 8 -15 1
-8 -11 -39 -11 -87 1 -18 4 -31 2 -36 -6 -4 -7 -13 -9 -20 -5 -20 12 -140 17
-140 5 0 -5 -11 -10 -25 -10 -22 0 -30 -9 -26 -32 1 -9 -11 -5 -71 26 -51 26
-52 36 -4 37 25 0 27 2 12 8 -36 14 -65 0 -91 -43 -14 -22 -25 -36 -25 -29 0
6 -9 15 -20 18 -24 8 -26 32 -3 57 22 24 2 23 -30 -2 -23 -18 -25 -24 -16 -48
9 -24 5 -22 -36 18 -56 54 -69 81 -53 115 6 13 14 22 18 20 4 -2 13 15 21 38
14 44 41 98 66 132 12 16 14 16 10 3 -4 -10 -2 -18 3 -18 15 0 28 31 22 54 -3
12 -1 18 3 14 5 -5 14 1 22 12 15 21 43 27 43 10 0 -5 9 -10 21 -10 11 0 17 5
14 10 -3 6 -1 10 4 10 6 0 11 15 11 34 0 40 15 56 25 26 13 -41 64 -11 65 38
0 19 4 21 25 16 14 -3 25 -2 25 2 0 5 7 17 15 28 13 17 15 17 30 2 22 -21 32
-20 47 4 15 24 31 25 62 4 23 -14 26 -13 59 21 31 31 36 34 42 18 5 -10 7 -27
6 -38 -3 -28 36 -31 44 -4 5 15 16 19 55 19 40 0 50 4 64 25 20 30 31 33 15 4z
m-747 -60 c19 -19 14 -113 -7 -146 -9 -13 -13 -23 -9 -23 4 0 2 -6 -3 -12 -6
-7 -16 -30 -22 -50 -7 -20 -26 -54 -42 -74 -16 -21 -27 -44 -24 -51 2 -8 1
-12 -3 -9 -4 2 -20 -22 -36 -55 -15 -32 -32 -59 -37 -59 -5 0 -9 -4 -9 -10 0
-13 -45 -107 -78 -165 -7 -11 -16 -30 -22 -42 -5 -13 -16 -23 -24 -23 -8 0
-18 -5 -22 -12 -5 -7 -3 -8 6 -3 8 5 1 -8 -14 -28 -16 -20 -32 -34 -37 -31 -5
3 -9 0 -9 -5 0 -6 -7 -11 -15 -11 -8 0 -15 7 -15 15 0 8 -4 15 -10 15 -5 0
-10 7 -10 15 0 8 7 15 16 15 11 0 15 6 11 20 -3 11 -1 20 4 20 13 0 11 34 -3
48 -10 10 -10 14 0 21 7 4 10 14 7 23 -4 9 4 19 21 27 20 9 25 17 21 33 -3 12
3 42 15 67 14 31 21 65 20 104 0 42 3 57 13 57 9 0 12 8 9 25 -5 30 -1 31 22
8 17 -17 18 -17 10 2 -17 42 -18 82 -2 88 10 4 13 13 9 23 -4 12 -3 15 5 10
17 -10 32 2 26 19 -4 8 -11 12 -17 8 -7 -4 -2 6 11 21 12 16 22 37 22 47 0 21
20 25 37 8 13 -13 33 -4 33 15 0 8 7 19 15 26 8 7 12 16 9 21 -3 5 2 6 10 3 9
-3 16 -1 16 5 0 6 5 11 11 11 6 0 8 -8 5 -17 -5 -16 -5 -16 6 -2 24 29 56 33
80 8z m3559 -22 c-8 -8 -11 -5 -11 9 0 27 14 41 18 19 2 -9 -1 -22 -7 -28z
m-3471 20 c0 -7 -7 -22 -15 -33 -12 -16 -14 -17 -15 -2 0 23 11 48 21 48 5 0
9 -6 9 -13z m3607 -129 c-3 -8 -6 -5 -6 6 -1 11 2 17 5 13 3 -3 4 -12 1 -19z
m-2307 -88 c0 -5 -7 -10 -16 -10 -8 0 -12 5 -9 10 3 6 10 10 16 10 5 0 9 -4 9
-10z m2642 -130 c5 0 8 7 4 15 -3 8 -1 15 5 15 5 0 14 -11 19 -25 6 -15 17
-25 29 -25 34 0 51 -12 51 -35 0 -34 18 -40 22 -8 l4 28 11 -24 10 -25 7 28
c4 18 2 34 -6 44 -10 12 -5 11 20 -4 21 -11 40 -34 49 -57 10 -25 19 -34 23
-27 9 15 30 4 30 -15 0 -7 9 -16 19 -20 11 -3 29 -22 41 -42 26 -44 38 -35 42
32 l3 50 22 -55 c19 -48 29 -53 24 -11 -5 31 17 -2 24 -36 11 -65 28 -113 37
-107 4 3 6 17 3 32 -5 27 -5 27 7 4 9 -18 17 -22 32 -17 12 4 36 9 54 12 25 4
32 2 32 -11 0 -9 -8 -16 -19 -16 -13 0 -20 -9 -24 -32 -7 -46 26 -83 36 -40 3
14 6 13 14 -8 6 -14 17 -38 24 -55 12 -28 13 -29 16 -7 3 12 11 22 20 22 8 0
23 -10 33 -22 17 -21 19 -21 25 -5 4 9 13 17 20 17 19 0 64 64 72 102 6 33 7
32 20 -22 8 -30 20 -79 26 -107 18 -76 33 -86 42 -27 6 40 4 50 -11 61 -21 15
-14 26 10 17 9 -4 26 -25 38 -48 l21 -41 12 28 c6 15 15 24 19 20 4 -4 4 0 1
8 -3 9 0 21 8 27 11 9 12 0 6 -56 -6 -53 -5 -69 7 -78 8 -6 14 -21 14 -32 0
-44 20 -31 26 18 4 27 10 50 15 50 5 0 8 3 6 8 -1 4 2 8 8 9 5 1 12 10 16 20
7 16 8 15 8 -4 1 -13 5 -23 10 -23 5 0 8 17 6 37 -2 26 -1 33 5 22 5 -9 11
-32 13 -51 5 -44 35 -85 67 -91 32 -7 33 -6 33 44 0 26 3 36 8 27 5 -7 9 -28
9 -45 0 -29 13 -53 46 -86 6 -6 8 -21 6 -34 -5 -28 14 -31 21 -3 6 24 27 27
27 4 0 -14 3 -14 16 -3 13 11 14 9 9 -12 -8 -31 11 -82 28 -76 6 2 13 12 15
23 2 10 6 26 9 34 4 8 7 17 7 20 1 3 7 14 13 25 9 14 12 16 13 5 0 -8 -4 -21
-9 -29 -6 -10 -3 -20 12 -32 20 -15 21 -21 10 -48 -17 -46 -7 -72 24 -65 16 4
28 2 34 -7 7 -11 11 -10 22 5 13 17 14 13 20 -42 3 -37 14 -75 26 -95 12 -19
21 -41 21 -48 0 -12 15 -33 61 -88 9 -10 5 -29 -18 -86 -17 -40 -27 -78 -23
-85 5 -8 11 -1 18 19 17 49 34 47 92 -9 28 -28 64 -57 79 -65 25 -12 31 -12
60 6 42 25 49 24 22 -5 -26 -28 -21 -72 10 -81 21 -7 42 2 34 15 -3 4 3 14 12
21 15 13 16 11 9 -13 -6 -27 -5 -28 34 -28 36 0 41 -4 59 -38 18 -35 18 -42 5
-67 -19 -36 -18 -75 1 -75 8 0 15 -4 15 -10 0 -5 7 -10 16 -10 8 0 12 -5 9
-10 -3 -6 -17 -7 -31 -4 -13 3 -24 2 -24 -4 0 -10 48 -23 89 -24 18 0 21 -2
10 -9 -10 -6 -6 -9 14 -9 15 0 27 -5 27 -11 0 -6 -7 -8 -17 -5 -16 6 -16 6 0
-12 9 -10 17 -25 17 -33 0 -12 -2 -11 -10 1 -9 13 -14 7 -11 -12 0 -4 -6 -5
-14 -2 -8 4 -15 1 -15 -5 0 -6 5 -11 10 -11 6 0 15 -10 20 -22 5 -13 9 -17 9
-10 1 6 5 12 11 12 5 0 7 -7 4 -15 -5 -11 1 -15 20 -15 l27 0 -28 -24 -27 -24
64 -32 c36 -18 60 -35 53 -37 -7 -2 -22 1 -35 7 -18 9 -18 7 5 -10 15 -12 25
-26 21 -31 -3 -5 -10 -7 -15 -4 -5 4 -9 1 -9 -4 0 -6 -11 -11 -25 -11 -14 0
-25 -5 -25 -11 0 -8 15 -10 47 -5 l47 6 -34 -25 c-36 -27 -56 -31 -62 -15 -2
7 -23 0 -51 -14 -43 -23 -51 -24 -48 -3 0 4 -12 7 -28 7 -36 0 -50 17 -19 22
17 2 24 11 26 31 2 17 9 27 19 27 9 0 14 2 11 5 -3 3 -24 2 -46 -4 -49 -10
-74 6 -47 32 20 20 19 41 -1 33 -9 -3 -24 -6 -35 -6 -12 0 -23 -10 -29 -25
-11 -29 -16 -31 -82 -44 -62 -11 -78 -1 -57 36 9 15 14 40 13 56 -2 15 1 27 5
27 13 0 0 53 -17 73 -14 16 -14 17 4 16 37 -4 54 1 54 16 0 9 -6 12 -17 8 -10
-4 -14 -2 -9 5 3 6 2 13 -3 17 -6 3 -15 -4 -21 -15 -6 -11 -16 -20 -22 -20 -6
0 -8 3 -5 7 12 11 -40 31 -67 26 -14 -3 -34 -2 -43 2 -10 5 -21 7 -25 7 -11
-3 -10 12 3 45 14 33 13 73 -1 87 -6 6 -12 -1 -16 -22 -6 -29 -43 -75 -45 -56
-8 62 -7 79 3 92 10 11 9 17 -7 28 -10 8 -22 14 -26 14 -4 0 -5 16 -4 36 4 41
-20 88 -41 80 -8 -3 -14 -1 -14 5 0 6 -4 7 -10 4 -5 -3 -10 -1 -10 5 0 8 -9
10 -25 6 -18 -5 -27 -2 -31 9 -4 8 -14 15 -23 15 -10 0 -24 12 -32 28 -8 15
-25 38 -37 52 -27 28 -53 81 -46 92 5 8 -18 12 -45 9 -8 -2 -10 2 -5 10 5 9
-1 11 -24 6 -27 -5 -31 -3 -41 23 -5 17 -17 30 -26 30 -9 0 -18 7 -21 15 -10
24 -33 18 -27 -7 4 -22 4 -23 -11 -4 -9 11 -16 28 -16 38 0 15 -5 17 -26 12
-18 -5 -29 -1 -39 12 -9 13 -26 19 -52 19 -37 0 -38 1 -38 35 0 19 3 40 7 45
12 18 -66 5 -82 -14 -8 -9 -28 -23 -44 -29 -26 -12 -28 -11 -21 5 12 33 10 36
-22 43 -27 6 -35 3 -50 -16 -19 -26 -37 -13 -27 19 3 10 1 24 -5 31 -16 19 -3
50 14 36 8 -7 16 -7 19 -2 3 6 -1 15 -9 22 -8 7 -15 9 -15 5 0 -4 -6 -2 -14 4
-7 6 -20 9 -28 6 -9 -4 -22 1 -31 9 -24 25 -29 19 -12 -14 9 -17 13 -36 9 -42
-4 -6 -3 -8 3 -5 12 8 23 -48 12 -60 -10 -11 -23 -80 -14 -71 5 4 14 3 20 -2
16 -13 29 29 18 57 -7 17 -6 17 11 1 12 -13 15 -25 10 -40 -4 -13 -7 -29 -6
-35 6 -27 -64 0 -73 28 -3 10 -19 21 -35 24 -35 8 -64 43 -50 60 6 7 -1 17
-21 30 -34 23 -38 54 -9 75 11 8 20 20 20 27 0 16 12 17 28 1 9 -9 12 -8 12 5
0 20 -19 30 -60 31 -15 1 -26 4 -23 9 2 4 -3 7 -12 7 -9 0 -19 -9 -22 -21 -3
-12 -11 -18 -19 -15 -9 4 -14 -2 -15 -17 -1 -20 -1 -20 -10 4 -6 15 -19 29
-30 32 -18 5 -20 2 -14 -16 14 -49 18 -97 6 -97 -6 0 -11 9 -11 21 0 14 -10
24 -31 32 -26 10 -30 16 -25 38 3 14 0 31 -7 38 -13 13 -62 15 -86 1 -27 -14
-81 46 -88 98 -5 36 -7 39 -20 26 -16 -16 -49 -15 -46 2 0 5 -26 10 -60 11
-34 1 -63 6 -65 12 -5 16 -22 13 -22 -4 0 -9 9 -15 21 -15 23 0 21 -18 -4 -34
-12 -8 -22 -7 -37 2 -27 16 -27 16 -32 -18 -5 -32 5 -40 51 -40 27 0 51 -16
51 -33 0 -5 -11 -7 -25 -5 -14 3 -25 1 -25 -3 0 -15 -44 -10 -68 7 -21 14 -33
72 -13 60 12 -7 22 20 15 38 -6 16 -59 38 -68 29 -3 -4 -6 -1 -6 6 0 20 69
159 83 165 6 3 -1 3 -18 0 -16 -3 -40 -11 -53 -17 -15 -7 -26 -7 -30 -2 -7 11
-10 11 -72 14 -34 1 -43 6 -60 33 -18 30 -18 32 -2 44 16 12 15 13 -4 14 -12
0 -33 -9 -47 -20 -24 -19 -47 -26 -47 -15 0 3 7 21 14 40 11 26 21 35 39 35
48 0 88 13 98 32 6 11 7 24 2 29 -9 9 -72 -10 -96 -29 -8 -7 -21 -10 -29 -7
-9 4 -19 -4 -26 -20 -7 -15 -18 -25 -24 -23 -21 7 -19 24 8 51 21 21 30 24 50
17 29 -11 30 -3 5 28 -22 25 -41 29 -41 7 0 -10 -10 -15 -27 -16 -16 0 -36 -2
-45 -4 -25 -4 -31 10 -16 35 15 23 33 27 24 5 -4 -12 -2 -13 15 -2 17 10 17
13 4 23 -19 14 -19 24 -2 24 8 0 22 18 32 40 10 22 24 45 31 51 8 6 11 16 7
22 -4 6 -1 7 6 2 8 -4 11 -21 9 -44 -3 -20 0 -46 5 -58 l10 -22 37 19 c21 11
51 36 68 57 34 43 72 52 72 18 1 -19 1 -19 14 -2 9 12 22 16 37 12 20 -4 27 1
39 27 22 48 40 48 40 -1 0 -22 4 -42 9 -46 11 -6 51 95 51 129 0 38 15 40 18
2 2 -20 8 -36 14 -36z m-2938 -45 c-7 -18 9 -19 36 -2 17 10 22 9 31 -3 8 -11
12 -12 16 -2 7 17 23 15 23 -3 0 -8 8 -15 17 -15 10 0 1 -9 -20 -20 -20 -11
-46 -20 -57 -20 -13 0 -24 -10 -30 -25 -12 -31 -24 -33 -15 -2 5 19 4 20 -7 6
-11 -13 -15 -14 -26 -3 -9 10 -9 15 2 21 7 4 17 18 20 31 6 18 4 22 -11 20
-10 -2 -18 2 -18 7 0 6 5 10 12 10 6 0 15 4 19 8 11 11 14 8 8 -8z m290 -50
c-4 -8 -11 -15 -16 -15 -6 0 -5 6 2 15 7 8 14 15 16 15 2 0 1 -7 -2 -15z
m-145 -24 c-15 -5 -22 6 -14 19 6 9 10 9 16 -1 5 -8 4 -15 -2 -18z m-1592 -13
c-3 -8 -6 -5 -6 6 -1 11 2 17 5 13 3 -3 4 -12 1 -19z m1770 -14 c-3 -3 -12 -4
-19 -1 -8 3 -5 6 6 6 11 1 17 -2 13 -5z m-511 -13 c-3 -5 -22 -12 -41 -15 -19
-4 -35 -11 -35 -16 0 -6 -4 -10 -10 -10 -21 0 -9 18 23 34 35 17 71 21 63 7z
m89 -20 c-3 -6 -14 -11 -24 -11 -10 0 -30 -9 -45 -21 -19 -15 -24 -16 -20 -5
3 9 1 16 -6 16 -6 0 -8 5 -5 11 4 6 14 8 22 5 9 -4 22 -1 29 5 8 6 14 8 14 5
0 -4 8 -3 17 3 20 11 28 7 18 -8z m235 15 c0 -3 -4 -8 -10 -11 -5 -3 -10 -1
-10 4 0 6 5 11 10 11 6 0 10 -2 10 -4z m210 -1 c0 -2 -14 -12 -31 -21 -26 -13
-33 -14 -40 -2 -7 10 -9 9 -9 -5 0 -10 -4 -16 -10 -12 -19 12 3 34 38 38 21 2
40 4 45 5 4 1 7 0 7 -3z m-180 -15 c0 -13 -41 -30 -54 -22 -7 4 23 22 52 31 1
1 2 -4 2 -9z m2245 0 c7 -12 -2 -12 -30 0 -19 8 -19 9 2 9 12 1 25 -3 28 -9z
m-99 -25 c0 -14 -7 -25 -13 -25 -16 0 -17 16 -3 25 6 4 8 11 5 16 -4 5 -2 9 3
9 6 0 9 -11 8 -25z m-2228 -25 c2 -36 0 -40 -20 -39 -17 1 -19 2 -5 6 10 3 17
14 17 26 -1 20 -2 20 -11 5 -9 -17 -59 -26 -59 -11 0 14 44 53 59 53 11 0 17
-11 19 -40z m322 -11 c0 -4 -7 -12 -15 -19 -11 -9 -15 -10 -15 -1 0 8 -11 4
-28 -8 -25 -17 -44 -20 -91 -12 -2 1 17 17 43 37 25 19 44 40 40 45 -3 6 10 0
30 -13 20 -13 36 -26 36 -29z m76 27 c7 -7 4 -16 -9 -29 -21 -21 -47 -16 -47
9 0 11 5 14 16 10 12 -5 14 -1 9 15 -7 22 4 20 31 -5z m-259 -43 c-7 -8 -27
-15 -43 -17 -16 -2 -29 -8 -29 -14 0 -18 -10 -22 -38 -14 l-28 7 21 22 c11 12
20 29 20 36 0 8 9 17 21 20 17 5 20 2 16 -14 -6 -22 1 -23 37 -9 14 5 27 17
27 27 1 11 3 9 6 -6 3 -13 -2 -30 -10 -38z m1723 31 c8 -4 23 -9 33 -10 26 -6
97 -43 135 -72 20 -15 36 -22 40 -16 4 6 23 10 42 10 26 -1 37 -7 45 -23 5
-13 16 -23 24 -23 9 0 12 -8 9 -25 -7 -32 6 -32 54 1 21 15 41 24 45 21 3 -4
-5 -11 -18 -16 -24 -9 -24 -9 9 -21 l34 -13 -27 -24 -26 -25 28 -15 c49 -25
50 -33 5 -33 -39 0 -42 2 -42 26 0 26 -2 27 -45 21 -24 -4 -53 -11 -62 -16
-10 -5 -33 -16 -50 -23 -32 -12 -44 -28 -23 -28 24 0 7 -18 -20 -22 -16 -3
-30 -1 -30 3 0 5 -6 6 -14 3 -12 -5 -11 -9 4 -24 10 -10 26 -21 37 -24 25 -9
77 -56 69 -63 -3 -3 -12 0 -21 7 -12 10 -18 8 -35 -11 -10 -13 -18 -34 -17
-46 3 -23 33 -52 54 -53 34 -1 137 -61 141 -84 4 -21 -51 -45 -90 -40 -17 2
-26 -1 -23 -6 4 -6 18 -10 32 -10 16 0 37 -12 56 -32 29 -29 29 -32 12 -45
-11 -7 -22 -13 -27 -13 -4 0 -8 -7 -8 -15 0 -22 -75 -19 -127 5 -44 20 -45 19
-68 -24 -15 -28 -33 -31 -37 -5 -2 12 -9 24 -16 27 -7 2 -10 -2 -6 -12 4 -10
1 -16 -9 -16 -9 0 -16 14 -20 42 -3 24 -5 44 -3 45 1 1 19 -9 39 -23 20 -13
37 -23 37 -20 0 2 2 11 5 18 4 10 -7 19 -35 28 -23 7 -43 17 -46 21 -2 4 -17
2 -34 -4 -24 -9 -32 -8 -50 8 -11 10 -23 15 -27 12 -3 -4 -12 -2 -20 4 -11 9
-13 7 -10 -11 4 -25 41 -60 63 -60 14 0 38 -36 39 -59 0 -8 20 -30 45 -49 54
-42 57 -58 11 -54 -37 3 -54 18 -77 70 -13 30 -25 38 -49 32 -51 -11 -71 -8
-127 18 -81 38 -105 45 -113 33 -7 -13 13 -53 24 -47 12 8 51 -23 51 -40 0 -8
9 -14 19 -14 24 0 36 16 19 23 -25 10 20 7 46 -3 18 -7 26 -17 26 -35 0 -17
17 -41 55 -78 60 -58 68 -73 30 -55 -19 8 -31 8 -50 0 -14 -7 -34 -12 -43 -12
-15 1 -15 2 1 15 18 13 16 15 -25 36 -23 12 -60 25 -80 29 -33 6 -38 5 -38
-11 0 -11 -4 -19 -9 -19 -24 0 -41 14 -41 35 0 26 -11 32 -62 31 -33 -1 -39 3
-48 27 -5 15 -18 39 -29 53 -18 22 -18 28 -6 40 7 8 18 14 24 14 12 0 15 19 4
21 -106 14 -163 17 -163 8 0 -5 5 -9 10 -9 6 0 10 -7 10 -16 0 -8 4 -13 9 -10
10 7 20 -70 10 -85 -6 -10 -49 53 -49 72 0 5 -3 9 -8 9 -4 0 -22 13 -40 29
-34 31 -72 49 -72 33 0 -6 -15 -7 -39 -1 -22 5 -61 11 -88 13 -26 3 -59 7 -73
10 -14 2 -33 5 -43 5 -29 1 -11 18 27 25 27 5 34 11 34 31 0 22 -2 23 -16 8
-27 -27 -79 -44 -104 -34 -13 4 -29 6 -35 4 -16 -6 -17 19 -1 35 6 6 8 15 4
19 -4 5 -13 0 -21 -10 -12 -17 -13 -16 -18 2 -3 12 -20 24 -46 32 -61 18 -50
27 27 22 50 -4 64 -3 56 6 -6 6 -27 12 -47 13 -20 1 -36 4 -35 7 3 25 -4 31
-29 25 -28 -7 -28 -7 -9 14 14 17 23 19 37 11 13 -7 19 -6 19 1 0 6 -14 13
-30 17 -17 3 -33 10 -36 14 -6 11 133 11 160 0 19 -7 19 -8 0 -16 -10 -4 -27
-8 -36 -9 -10 -1 -18 -5 -18 -11 -1 -5 33 -15 75 -22 68 -10 125 -33 125 -49
0 -4 -15 -4 -34 -2 -48 5 -36 -12 34 -46 40 -19 68 -27 90 -24 17 3 33 1 36
-3 2 -5 11 -6 18 -3 8 3 17 1 21 -5 8 -15 48 -14 63 1 9 9 12 8 12 -6 0 -9 5
-14 10 -11 6 3 10 10 10 14 0 13 -83 50 -127 57 -23 3 -44 13 -47 20 -3 8 -12
14 -21 14 -8 0 -15 8 -15 19 0 10 -10 25 -22 33 -26 18 -19 49 10 41 11 -2 22
0 26 5 3 5 -17 12 -44 15 -28 3 -55 9 -60 12 -19 12 1 25 38 26 20 1 29 3 19
6 -17 4 -37 40 -37 64 0 9 26 8 124 -7 16 -3 37 -9 47 -14 14 -8 17 -6 16 9 0
11 -5 17 -9 15 -14 -9 -9 13 6 25 8 6 31 9 56 6 32 -4 41 -2 38 7 -3 7 1 27 8
43 9 20 13 24 14 12 0 -14 5 -17 20 -12 16 5 19 3 14 -10 -6 -14 1 -16 48 -14
30 1 59 -1 65 -4 6 -4 30 -5 54 -2 32 4 55 0 82 -14 36 -18 38 -18 50 -1 19
28 151 23 194 -7 36 -27 49 -28 56 -9 4 9 -2 17 -14 21 -28 9 -61 43 -49 50 5
3 0 21 -13 40 -16 26 -29 35 -50 35 -36 0 -67 -16 -67 -35 0 -8 -4 -15 -9 -15
-4 0 -6 12 -3 27 3 18 -1 30 -14 41 -17 12 -13 13 34 7 35 -5 52 -3 52 4 0 6
-6 11 -14 11 -26 0 -28 33 -4 52 13 10 26 18 31 18 4 0 7 7 7 15 0 8 5 15 10
15 6 0 10 6 10 13 0 10 14 13 53 10 28 -1 59 -6 67 -9z m-2000 -8 c0 -3 -4 -8
-10 -11 -5 -3 -10 -1 -10 4 0 6 5 11 10 11 6 0 10 -2 10 -4z m50 -10 c0 -3 -4
-8 -10 -11 -5 -3 -10 -1 -10 4 0 6 5 11 10 11 6 0 10 -2 10 -4z m245 -36 c3
-5 1 -10 -4 -10 -6 0 -11 5 -11 10 0 6 2 10 4 10 3 0 8 -4 11 -10z m245 -9 c0
-5 -7 -12 -16 -15 -14 -5 -15 -4 -4 9 14 17 20 19 20 6z m-45 -20 c-6 -5 -23
-13 -40 -17 -27 -7 -29 -6 -16 9 7 10 25 17 39 17 16 0 22 -4 17 -9z m5 -31
c0 -5 -4 -10 -9 -10 -6 0 -13 5 -16 10 -3 6 1 10 9 10 9 0 16 -4 16 -10z
m1185 -10 c3 -5 1 -10 -4 -10 -6 0 -11 5 -11 10 0 6 2 10 4 10 3 0 8 -4 11
-10z m-1105 -39 c0 -5 -7 -14 -15 -21 -12 -10 -15 -10 -15 2 0 8 3 18 7 21 9
10 23 9 23 -2z m3534 -26 c3 -8 1 -15 -4 -15 -6 0 -10 7 -10 15 0 8 2 15 4 15
2 0 6 -7 10 -15z m-2648 -52 c-7 -7 -26 7 -26 19 0 6 6 6 15 -2 9 -7 13 -15
11 -17z m-2706 -73 c0 -5 -2 -10 -4 -10 -3 0 -8 5 -11 10 -3 6 -1 10 4 10 6 0
11 -4 11 -10z m4033 -17 c-8 -24 -45 -68 -58 -70 -5 -1 -9 7 -7 17 3 15 -1 18
-15 13 -16 -6 -16 -5 -4 10 8 10 19 16 25 14 6 -2 22 4 35 14 29 23 32 23 24
2z m-416 -18 c-15 -14 -14 -45 2 -45 20 1 50 13 46 20 -3 4 4 10 15 13 11 3
20 0 20 -6 0 -5 14 -23 31 -38 33 -29 35 -55 7 -73 -20 -12 -58 16 -58 44 0
23 -11 32 -26 19 -6 -5 -24 -7 -38 -3 -21 5 -26 12 -26 36 0 18 7 36 17 44 23
16 30 9 10 -11z m76 18 c-7 -2 -21 -2 -30 0 -10 3 -4 5 12 5 17 0 24 -2 18 -5z
m247 -88 c-7 -8 -17 -15 -22 -15 -6 0 -5 7 2 15 7 8 17 15 22 15 6 0 5 -7 -2
-15z m5 -95 c3 -5 1 -10 -4 -10 -6 0 -11 5 -11 10 0 6 2 10 4 10 3 0 8 -4 11
-10z m125 -50 c-24 -15 -37 -11 -16 5 11 8 22 12 25 9 3 -3 -1 -9 -9 -14z
m-2156 -36 c26 -10 9 -21 -23 -16 -17 2 -28 8 -25 13 6 10 26 12 48 3z m-136
-13 c18 -11 -29 -24 -54 -14 -16 6 -16 7 2 14 26 10 37 10 52 0z m-548 -5 c0
-2 -7 -7 -16 -10 -8 -3 -12 -2 -9 4 6 10 25 14 25 6z m2790 -11 c0 -7 8 -19
18 -24 15 -9 15 -10 0 -11 -20 0 -50 28 -43 41 9 14 25 11 25 -6z m-2745 -5
c3 -5 19 -10 35 -10 16 0 35 -6 42 -14 8 -7 24 -17 36 -20 12 -4 22 -11 22
-16 0 -9 -39 -2 -55 10 -5 5 -34 8 -63 7 -29 0 -58 5 -64 11 -9 9 -5 12 18 12
28 1 28 1 10 15 -17 13 -17 15 -4 15 9 0 20 -4 23 -10z m873 -15 c9 -9 -29
-17 -53 -11 -39 10 -29 26 12 20 20 -2 39 -6 41 -9z m2446 3 c-7 -11 -32 -10
-39 2 -3 6 4 9 19 8 13 -1 22 -6 20 -10z m-5817 -14 c2 -6 -3 -17 -12 -24 -13
-11 -19 -10 -35 8 -11 12 -20 23 -20 25 0 10 64 1 67 -9z m5757 1 c-4 -10 7
-20 35 -32 41 -18 53 -33 26 -33 -16 0 -85 57 -85 71 0 5 7 9 15 9 8 0 12 -6
9 -15z m-2615 -18 c8 -7 41 -13 73 -13 58 -2 78 -8 65 -20 -3 -4 -52 -6 -109
-5 -75 2 -105 6 -110 16 -5 7 -17 11 -28 8 -34 -9 -22 16 13 26 35 11 74 6 96
-12z m291 -12 c-17 -20 -5 -45 22 -46 13 0 41 -9 63 -19 l40 -19 -61 0 c-52
-1 -63 2 -82 24 -15 17 -27 22 -39 18 -15 -6 -14 -8 7 -13 41 -10 8 -19 -38
-10 -49 9 -132 2 -132 -11 0 -15 -37 -10 -51 8 -12 15 -12 16 8 11 12 -3 50 0
85 7 34 8 65 12 69 9 4 -2 10 4 13 13 4 9 1 20 -5 24 -18 11 20 16 58 8 24 -5
33 -3 38 9 3 8 8 12 12 9 3 -4 0 -13 -7 -22z m-1032 3 c-7 -19 -40 -21 -74 -3
l-29 15 53 0 c39 0 52 -4 50 -12z m556 -3 c-10 -8 -25 -15 -33 -15 -11 0 -9 4
5 15 10 8 25 15 33 15 11 0 9 -4 -5 -15z m-179 -5 c-28 -12 -67 -12 -60 0 3 6
23 10 43 9 30 0 33 -2 17 -9z m-345 -24 c0 -9 18 -16 48 -21 52 -7 174 -64
166 -77 -3 -5 -13 -6 -22 -4 -10 3 -23 2 -30 -2 -9 -6 -5 -12 13 -22 14 -7 26
-17 26 -22 1 -4 2 -14 3 -20 1 -8 13 -12 31 -10 24 2 27 0 13 -8 -27 -16 -207
9 -218 31 -5 9 -22 20 -36 23 -32 8 -74 45 -74 64 0 8 -10 22 -22 32 -29 23
-23 28 31 31 24 2 45 9 48 16 6 16 23 7 23 -11z m415 -45 c-3 -14 -3 -21 1
-14 3 7 11 10 19 7 7 -3 16 3 19 14 8 24 35 37 50 22 5 -5 21 -10 34 -10 25 0
126 -50 118 -58 -3 -2 -21 1 -40 8 -54 18 -72 9 -33 -17 20 -13 54 -23 91 -26
37 -3 64 -11 75 -22 15 -16 14 -17 -7 -12 -13 3 -60 -5 -105 -19 -89 -26 -122
-29 -132 -14 -4 7 -13 7 -26 0 -17 -10 -23 -6 -20 12 1 11 -31 24 -54 24 -19
-1 -35 11 -35 27 0 4 18 7 40 7 22 0 40 5 40 10 0 6 -11 10 -25 10 -14 0 -25
5 -25 10 0 6 -9 10 -20 10 -11 0 -20 5 -20 10 0 6 -8 10 -19 10 -10 0 -24 7
-31 15 -6 8 -15 13 -18 12 -4 -1 -9 3 -12 8 -3 6 9 11 25 13 17 2 34 7 39 12
5 5 24 1 42 -7 28 -14 33 -21 29 -42z m-158 43 c-3 -3 -12 -4 -19 -1 -8 3 -5
6 6 6 11 1 17 -2 13 -5z m4477 -44 c25 -9 38 -50 16 -50 -5 0 -10 -6 -10 -14
0 -8 -5 -18 -11 -22 -9 -5 -10 4 -5 30 6 30 4 41 -11 52 -21 16 -14 18 21 4z
m-3705 -26 c2 -2 -4 -7 -13 -10 -11 -4 -24 0 -34 10 -16 16 -15 17 13 10 17
-4 32 -8 34 -10z m-44 -19 c33 0 65 -3 70 -6 6 -4 26 -11 45 -18 26 -8 39 -21
52 -48 16 -37 15 -38 -6 -45 -34 -10 -116 -9 -116 2 0 6 -7 10 -15 10 -8 0
-15 -4 -15 -10 0 -5 7 -10 16 -10 21 0 12 -24 -11 -28 -9 -2 -38 7 -63 20 -38
19 -42 24 -24 26 12 2 22 7 22 12 0 6 12 5 28 0 l27 -10 -30 22 c-16 13 -34
23 -40 24 -35 4 -105 30 -105 40 0 7 -6 14 -12 17 -7 2 3 9 22 14 23 6 45 6
65 -1 17 -5 57 -10 90 -11z m-653 -26 c-22 -8 -52 -3 -52 10 0 4 17 5 37 3 33
-4 35 -6 15 -13z m1057 -16 c12 -14 19 -28 16 -31 -8 -8 -55 28 -55 43 0 23
16 18 39 -12z m827 -60 c16 -46 3 -59 -28 -28 -26 25 -43 75 -27 75 5 0 9 8 9
17 0 23 31 -19 46 -64z m-633 40 c10 -6 9 -31 -3 -38 -17 -10 -51 5 -61 28 -8
18 -9 14 -5 -15 3 -21 3 -38 1 -38 -23 0 -84 36 -88 51 -6 22 -3 23 24 9 12
-7 19 -7 19 -1 0 18 84 21 113 4z m704 -35 c-3 -8 -6 -5 -6 6 -1 11 2 17 5 13
3 -3 4 -12 1 -19z m-952 -28 c14 -26 14 -30 1 -30 -18 0 -35 29 -29 48 7 18
11 15 28 -18z m279 -15 c3 -8 2 -15 -3 -15 -5 0 -14 7 -21 15 -10 12 -10 15 3
15 8 0 17 -7 21 -15z m-1174 -30 c0 -8 -4 -15 -10 -15 -5 0 -10 7 -10 15 0 8
5 15 10 15 6 0 10 -7 10 -15z m164 -24 c4 -5 -3 -7 -14 -4 -23 6 -26 13 -6 13
8 0 17 -4 20 -9z m1057 -41 c31 0 79 -39 79 -65 0 -14 -4 -25 -10 -25 -5 0
-10 9 -10 19 0 34 -15 31 -26 -5 -6 -19 -7 -34 -3 -34 5 0 9 -15 9 -34 0 -25
5 -36 19 -41 10 -3 21 -15 24 -25 6 -24 -1 -25 -24 -4 -10 9 -28 17 -41 18
-15 1 -24 10 -29 28 -4 16 -3 28 3 30 6 2 -9 16 -32 32 -35 23 -41 31 -36 52
6 23 -4 30 -35 26 -13 -2 -41 37 -34 47 3 6 20 15 38 19 26 7 38 4 63 -15 17
-13 37 -23 45 -23z m-1271 20 c0 -11 -7 -20 -15 -20 -17 0 -18 2 -9 24 9 23
24 20 24 -4z m175 -62 c66 -44 125 -97 125 -111 0 -5 -12 -6 -27 -2 -16 4 -37
8 -48 9 -27 4 -97 28 -113 40 -10 7 -10 11 -1 16 15 10 -38 70 -62 70 -16 0
-33 23 -23 33 12 12 94 -18 149 -55z m383 45 c-10 -2 -26 -2 -35 0 -10 3 -2 5
17 5 19 0 27 -2 18 -5z m-1156 -25 c-7 -7 -12 -8 -12 -2 0 14 12 26 19 19 2
-3 -1 -11 -7 -17z m5115 16 c-3 -3 -12 -4 -19 -1 -8 3 -5 6 6 6 11 1 17 -2 13
-5z m-3432 -67 c-6 -40 -9 -44 -28 -39 -18 5 -19 7 -4 10 17 3 21 22 17 72 -1
19 1 22 10 14 8 -8 9 -27 5 -57z m421 36 c-10 -10 -19 5 -10 18 6 11 8 11 12
0 2 -7 1 -15 -2 -18z m-2113 -24 c21 -19 40 -86 27 -94 -15 -9 -40 7 -40 26 0
10 4 19 9 19 5 0 7 9 4 20 -3 11 -13 20 -22 20 -24 0 -45 16 -37 28 8 13 34 5
59 -19z m664 18 c13 5 38 -35 28 -45 -3 -4 -9 -2 -13 4 -4 6 -22 16 -39 23
-37 15 -46 35 -10 22 12 -4 27 -6 34 -4z m662 -12 c12 -12 4 -13 -55 -9 -81 6
-94 9 -94 25 0 16 131 2 149 -16z m-779 0 c-7 -8 -28 -15 -47 -15 -30 0 -34 2
-23 15 7 8 28 15 47 15 30 0 34 -2 23 -15z m1523 -4 c-3 -12 -11 -17 -19 -14
-23 9 -14 33 12 33 7 0 10 -8 7 -19z m-993 -73 c0 -11 -4 -16 -10 -13 -5 3
-19 1 -30 -5 -13 -7 -20 -7 -20 0 0 5 -5 10 -11 10 -5 0 -7 -4 -4 -10 3 -5 -3
-10 -14 -10 -12 0 -21 -5 -21 -11 0 -7 10 -9 25 -7 14 3 25 2 25 -1 0 -3 15
-7 34 -8 37 -3 129 -58 153 -92 14 -20 13 -21 -32 -21 -42 0 -102 28 -113 52
-2 4 -9 5 -16 2 -8 -3 -16 4 -20 18 -4 17 -8 20 -14 10 -7 -10 -11 -10 -22 3
-7 8 -20 15 -30 15 -24 0 -32 11 -19 27 9 10 7 13 -7 13 -16 0 -17 2 -4 10 12
8 12 12 2 18 -11 7 -11 11 0 19 20 17 49 19 101 10 37 -8 47 -14 47 -29z m296
-10 c39 -42 68 -85 83 -123 11 -30 11 -30 7 -2 -4 32 -3 32 29 11 25 -16 33
-48 16 -58 -11 -7 -68 21 -78 38 -5 7 -31 30 -59 50 -55 39 -88 80 -80 99 2 7
5 4 5 -6 1 -10 5 -16 11 -12 5 3 7 12 3 20 -10 28 32 16 63 -17z m664 17 c10
-12 10 -15 -4 -15 -9 0 -16 7 -16 15 0 8 2 15 4 15 2 0 9 -7 16 -15z m-240
-10 c0 -8 11 -17 25 -21 28 -7 32 -19 9 -28 -27 -10 -41 -7 -47 12 -2 9 -8 25
-12 35 -5 12 -2 17 9 17 9 0 16 -7 16 -15z m-132 -17 c-3 -7 -18 -14 -34 -16
l-29 -3 25 15 c32 18 43 19 38 4z m-854 -49 c-8 -13 -24 -1 -24 18 0 13 3 13
15 3 8 -7 12 -16 9 -21z m992 -5 c30 -22 42 -54 20 -54 -7 0 -10 -15 -8 -38 3
-26 -1 -42 -12 -51 -8 -7 -12 -20 -9 -29 5 -14 3 -15 -7 -5 -11 10 -11 18 -2
38 15 32 16 82 2 90 -19 11 -10 23 13 17 20 -5 21 -4 8 11 -18 23 -30 21 -41
-5 -5 -13 -9 -17 -9 -10 -1 7 -5 11 -10 8 -23 -15 -60 31 -45 55 8 14 67 -2
100 -27z m-907 -58 c9 -8 30 -22 46 -30 27 -14 28 -16 7 -16 -34 0 -81 30 -82
53 0 11 12 8 29 -7z m881 -32 c0 -14 -3 -14 -15 -4 -8 7 -15 14 -15 16 0 2 7
4 15 4 8 0 15 -7 15 -16z m-56 -36 c20 -38 22 -102 4 -96 -7 3 -14 19 -15 36
-1 17 -8 39 -17 47 -15 15 -12 45 4 45 5 0 16 -14 24 -32z m-134 -23 c0 -8 -4
-15 -10 -15 -5 0 -10 7 -10 15 0 8 5 15 10 15 6 0 10 -7 10 -15z m3991 -108
c-6 -6 -22 -4 -40 4 -44 19 -38 28 9 16 24 -7 36 -15 31 -20z m-7586 -102 c70
-14 129 -25 132 -25 3 0 3 -7 -1 -15 -3 -8 0 -15 7 -15 20 0 57 -76 57 -119 0
-22 5 -43 11 -47 8 -5 8 -9 -1 -14 -9 -5 -9 -9 -1 -14 7 -5 16 4 24 21 11 26
16 28 66 28 59 -1 86 -22 78 -62 -2 -13 2 -24 10 -27 10 -4 11 -10 3 -25 -5
-11 -10 -29 -10 -40 0 -21 -35 -47 -58 -43 -18 4 -72 -53 -72 -76 0 -11 7 -25
15 -32 8 -7 15 -22 15 -33 0 -11 7 -28 16 -38 12 -14 13 -22 4 -39 -10 -19 -7
-25 20 -51 17 -16 28 -34 25 -39 -4 -6 1 -10 10 -10 13 0 16 -6 11 -25 -5 -20
-3 -25 13 -25 12 0 21 -10 26 -27 4 -16 10 -22 12 -15 3 6 9 10 14 7 12 -8 -2
-68 -19 -81 -9 -6 -13 -18 -9 -28 4 -9 2 -16 -3 -16 -6 0 -10 -4 -10 -10 0 -5
10 -10 21 -10 18 0 19 -2 9 -15 -9 -10 -9 -15 -1 -15 6 0 11 -11 11 -25 0 -13
9 -33 21 -44 12 -11 18 -24 14 -30 -3 -7 2 -11 15 -11 11 0 23 7 27 16 3 8 11
13 18 10 15 -5 48 27 38 37 -3 4 1 7 10 7 9 0 24 -14 33 -32 13 -26 14 -38 5
-70 -11 -36 -10 -41 14 -70 14 -17 23 -33 20 -36 -3 -3 -13 4 -21 17 -9 13
-22 20 -31 17 -8 -3 -24 3 -36 15 l-22 20 -9 -36 c-10 -44 -3 -74 25 -104 18
-19 19 -25 8 -32 -10 -6 -11 -9 -1 -10 6 -1 17 -3 22 -4 6 -1 14 -3 18 -4 5 0
7 -36 6 -78 -2 -58 -8 -84 -24 -104 -12 -17 -16 -30 -10 -34 13 -8 13 -51 -1
-77 -20 -38 -32 -177 -17 -195 7 -9 7 -13 -1 -13 -6 0 -11 5 -11 12 0 6 -3 8
-7 4 -4 -3 -7 -26 -8 -49 -1 -23 -5 -52 -9 -65 -7 -20 -5 -23 12 -20 10 2 26
-3 35 -11 15 -12 17 -11 17 3 0 10 4 15 9 11 6 -3 29 -1 53 5 90 22 98 22 99
3 1 -17 2 -17 6 0 2 9 9 17 14 17 22 0 4 -27 -70 -101 -58 -58 -80 -87 -84
-111 -2 -18 0 -36 6 -39 17 -11 9 -117 -10 -141 -16 -19 -35 -70 -24 -63 5 3
9 -10 8 -30 -1 -19 -5 -35 -9 -35 -5 0 -8 -5 -8 -11 0 -6 7 -8 15 -5 20 7 31
-20 16 -38 -9 -11 -6 -12 14 -8 57 10 95 -19 60 -48 -11 -9 -12 -16 -2 -31 9
-15 8 -25 -4 -51 -22 -45 -49 -129 -50 -153 0 -11 -6 -33 -13 -50 l-13 -30
-16 30 -16 30 -1 -35 c-1 -31 -2 -33 -10 -12 -5 12 -12 22 -15 22 -11 0 -45
-41 -45 -54 0 -7 -6 -18 -13 -24 -7 -6 -14 -30 -16 -53 -1 -29 -11 -53 -31
-78 -17 -19 -30 -45 -30 -57 0 -25 -24 -49 -40 -39 -5 3 -10 -1 -10 -9 0 -8 5
-18 12 -22 7 -4 8 -3 4 4 -4 7 -2 12 3 12 17 0 13 -35 -6 -52 -28 -24 -73 -32
-73 -13 0 8 -5 15 -11 15 -6 0 -3 7 5 16 19 18 20 31 4 36 -9 3 -8 16 2 54 8
27 13 54 11 59 -7 22 1 131 14 197 19 89 19 95 -3 75 -18 -17 -57 -24 -50 -9
31 66 54 113 67 139 8 18 12 35 8 39 -10 10 -39 -4 -32 -16 7 -12 -41 -12 -70
0 -21 8 -21 8 27 24 19 6 53 64 43 74 -4 4 -15 -4 -26 -17 -17 -21 -19 -21
-19 -4 0 11 9 28 19 40 24 26 51 77 51 99 0 13 -4 11 -20 -7 -20 -25 -26 -21
-11 9 5 9 15 32 22 51 7 18 30 55 51 82 21 27 38 51 38 54 0 3 -21 -11 -47
-30 -58 -42 -91 -60 -99 -53 -6 7 15 52 51 104 30 44 31 54 5 54 -11 0 -20 -7
-20 -15 0 -24 -29 -17 -42 9 -8 20 -7 28 6 41 9 9 30 36 47 61 38 56 33 86
-14 84 -49 -3 -49 -2 -11 33 l37 33 -39 -3 c-22 -1 -32 0 -24 4 8 3 31 18 50
32 19 14 37 26 39 28 2 2 2 6 -2 9 -3 4 -31 -8 -61 -25 -57 -32 -63 -27 -28
26 7 12 12 28 9 35 -2 7 2 25 10 40 13 26 12 28 -12 34 -14 3 -40 4 -58 0 -29
-5 -30 -4 -13 9 10 7 15 18 12 23 -3 6 1 23 9 38 18 36 14 39 -27 18 l-33 -17
28 26 c15 14 27 30 27 35 0 5 16 27 35 48 19 21 35 42 35 46 0 14 -27 9 -40
-7 -21 -25 -43 -19 -38 10 5 21 2 25 -13 20 -22 -7 -24 -2 -6 17 6 8 22 33 35
57 19 34 21 45 11 57 -10 12 -14 12 -20 2 -4 -7 -6 28 -4 77 3 57 1 85 -5 75
-5 -8 -12 -11 -16 -7 -4 4 3 18 16 32 l23 25 -35 0 c-41 0 -68 8 -68 20 0 5
14 24 30 42 17 18 30 36 30 40 0 4 -21 -2 -46 -13 -53 -22 -69 -19 -31 6 44
29 58 123 16 110 -13 -4 -19 -2 -19 9 0 11 -9 16 -27 16 -26 0 -27 0 -7 18 11
9 29 22 40 28 10 6 20 21 22 33 3 18 -1 21 -37 21 -48 0 -51 8 -36 97 2 12 0
22 -3 22 -4 -1 -19 -1 -34 0 l-28 1 20 23 c44 49 50 57 40 57 -5 0 -7 7 -4 15
7 17 -11 21 -21 5 -3 -5 -11 -10 -17 -10 -6 0 -1 11 12 25 13 14 31 25 39 25
9 0 3 7 -13 15 -35 19 -33 19 -39 -5 -3 -11 -10 -20 -16 -20 -8 0 -9 6 -1 19
15 28 13 34 -10 28 -17 -4 -20 -1 -18 21 3 25 0 27 -34 26 -21 -1 -35 2 -33 7
3 4 -5 15 -17 23 -21 15 -20 15 14 9 34 -5 38 -2 61 33 28 44 26 54 -10 54
-21 0 -23 2 -13 15 10 12 7 12 -19 -1 -41 -21 -61 -14 -34 12 11 10 28 31 37
45 16 26 16 27 -19 54 -40 32 -42 43 -19 91 16 33 16 35 -6 54 -13 11 -19 24
-14 31 4 8 3 9 -5 5 -6 -4 -14 0 -18 11 -3 10 -12 22 -20 26 -7 4 -13 19 -13
33 l0 24 39 -20 c22 -11 96 -31 166 -45z m3413 -20 c-7 -8 -38 23 -38 38 0 6
10 2 22 -10 12 -13 19 -25 16 -28z m-3213 -35 c8 -13 -5 -13 -25 0 -13 8 -13
10 2 10 9 0 20 -4 23 -10z m7085 -191 c0 -5 -4 -9 -10 -9 -5 0 -10 7 -10 16 0
8 5 12 10 9 6 -3 10 -10 10 -16z m310 -197 c0 -15 -2 -15 -10 -2 -13 20 -13
33 0 25 6 -3 10 -14 10 -23z m1460 -67 c10 -12 10 -15 -3 -15 -8 0 -20 7 -27
15 -10 12 -10 15 3 15 8 0 20 -7 27 -15z m-1493 -32 c-9 -8 -57 6 -57 16 0 16
34 18 49 3 7 -7 11 -16 8 -19z m1333 -41 c0 -12 -23 -32 -37 -32 -7 0 -13 9
-13 20 0 15 7 20 25 20 14 0 25 -4 25 -8z m264 -68 c9 -3 16 -13 16 -20 0 -12
-4 -12 -20 -4 -11 6 -20 15 -20 20 0 12 3 12 24 4z m-8698 -40 c-3 -20 -22
-37 -34 -30 -5 3 -7 16 -5 30 4 17 10 22 23 19 10 -3 17 -11 16 -19z m77 0
c22 5 22 5 2 -10 -11 -8 -26 -12 -33 -9 -8 3 -18 5 -24 5 -6 0 -3 9 8 21 17
19 19 19 22 4 3 -12 10 -15 25 -11z m8267 11 c0 -20 -38 -57 -50 -50 -14 9
-12 39 2 53 17 17 48 15 48 -3z m225 -113 c-13 -13 -34 24 -28 48 7 25 7 24
20 -9 8 -18 11 -36 8 -39z m-85 -14 c0 -11 -33 3 -47 21 -26 33 -13 45 17 16
17 -16 30 -32 30 -37z m284 46 c9 -3 16 -13 16 -20 0 -12 -4 -12 -20 -4 -11 6
-20 15 -20 20 0 12 3 12 24 4z m-548 -69 c-4 -16 -13 -25 -26 -25 -27 0 -25
24 3 43 27 18 31 15 23 -18z m-38 -47 c-3 -7 -11 -13 -18 -13 -7 0 -15 6 -17
13 -3 7 4 12 17 12 13 0 20 -5 18 -12z m617 -8 c-28 -12 -57 -12 -50 0 3 6 21
10 38 9 27 0 29 -2 12 -9z m-112 -7 c-7 -2 -19 -2 -25 0 -7 3 -2 5 12 5 14 0
19 -2 13 -5z m-379 -50 c-8 -56 -8 -57 -29 -49 -12 4 -14 10 -5 25 5 11 10 31
10 45 0 17 6 26 16 26 13 0 14 -8 8 -47z m-177 -279 c4 -12 -26 -54 -39 -54
-2 0 -4 16 -5 35 -3 29 0 35 17 35 11 0 23 -7 27 -16z m486 -49 c11 -7 25 -11
33 -8 8 3 14 0 14 -6 0 -6 12 -8 32 -4 22 4 29 3 24 -6 -11 -17 -74 -11 -123
11 -24 11 -43 22 -43 24 0 10 47 2 63 -11z m-442 -87 c20 -17 20 -17 -1 -28
-33 -18 -46 1 -41 62 4 53 4 53 13 18 5 -19 18 -43 29 -52z m-903 -58 c13 0
21 -4 18 -9 -3 -5 1 -12 10 -15 24 -9 54 -7 54 4 0 6 4 10 9 10 6 0 8 -9 6
-20 -3 -13 2 -23 13 -26 61 -20 95 -60 66 -77 -8 -5 -12 -12 -9 -18 11 -17 23
-9 30 21 5 24 12 30 33 30 15 -1 41 -7 57 -16 l30 -14 -30 6 c-28 5 -29 4 -10
-9 11 -8 30 -17 43 -21 12 -4 22 -12 22 -17 0 -11 -17 -12 -22 0 -1 4 -14 12
-27 16 -15 5 -21 4 -17 -3 3 -6 -1 -12 -9 -14 -12 -2 -8 -11 15 -38 16 -19 30
-32 30 -28 0 4 11 -3 25 -16 14 -13 25 -31 25 -40 0 -9 8 -16 18 -16 16 -1 16
-1 0 -10 -21 -13 -56 -1 -36 11 10 7 9 9 -4 9 -10 0 -18 7 -18 15 0 17 -2 18
-24 9 -13 -5 -14 -9 -5 -20 7 -9 8 -14 1 -14 -6 0 -19 -3 -29 -7 -16 -6 -17
-5 -3 12 14 17 13 18 -5 11 -11 -5 -30 -11 -42 -13 -13 -3 -21 -9 -18 -13 12
-19 -48 6 -61 26 -9 13 -22 20 -30 17 -10 -4 -12 0 -8 11 4 10 1 16 -9 16 -9
0 -19 9 -22 21 -5 15 -13 19 -27 16 -15 -4 -18 -2 -14 10 5 12 1 14 -21 8 -23
-5 -25 -4 -14 9 14 17 16 16 -51 20 -15 1 -30 5 -34 9 -9 9 131 2 145 -8 6 -3
11 -1 11 5 0 6 -7 13 -15 16 -8 4 -13 9 -11 13 2 3 -10 7 -26 8 -34 3 -58 19
-55 36 1 7 -4 11 -12 9 -8 -2 -18 3 -22 10 -16 25 -9 38 20 38 16 0 31 -6 34
-12 4 -10 7 -10 18 0 11 10 9 16 -11 35 -14 12 -21 19 -16 15 6 -5 21 -8 34
-8z m47 -10 c3 -5 1 -10 -4 -10 -6 0 -11 5 -11 10 0 6 2 10 4 10 3 0 8 -4 11
-10z m85 -30 c0 -5 -4 -10 -10 -10 -5 0 -10 5 -10 10 0 6 5 10 10 10 6 0 10
-4 10 -10z m96 -38 c-10 -2 -26 3 -35 12 -15 15 -13 16 19 4 26 -9 30 -13 16
-16z m581 6 c-3 -8 -6 -5 -6 6 -1 11 2 17 5 13 3 -3 4 -12 1 -19z m-4950 -100
c-2 -18 -4 -4 -4 32 0 36 2 50 4 33 2 -18 2 -48 0 -65z m4040 66 c-3 -3 -12
-4 -19 -1 -8 3 -5 6 6 6 11 1 17 -2 13 -5z m40 -20 c-3 -3 -12 -4 -19 -1 -8 3
-5 6 6 6 11 1 17 -2 13 -5z m-60 -19 c0 -8 -4 -12 -9 -9 -5 3 -6 10 -3 15 9
13 12 11 12 -6z m1082 -19 l24 -13 -47 -28 c-33 -20 -56 -26 -81 -23 -19 2
-35 0 -35 -6 0 -5 -3 -7 -6 -4 -3 4 0 16 6 28 8 15 17 19 31 15 10 -4 20 -2
20 4 1 6 3 16 4 21 1 6 3 12 4 15 2 10 57 4 80 -9z m-657 -15 c2 -6 15 -12 29
-14 26 -5 139 -65 139 -74 0 -2 -7 -12 -16 -20 -13 -13 -13 -17 -2 -24 10 -7
9 -9 -5 -9 -11 0 -15 -4 -11 -12 4 -7 3 -8 -5 -4 -6 4 -9 11 -7 15 3 4 -6 14
-19 21 -14 7 -25 17 -25 22 0 15 -69 78 -85 78 -8 0 -15 7 -15 15 0 16 16 21
22 6z m-332 -15 c0 -2 -7 -6 -15 -10 -8 -3 -15 -1 -15 4 0 6 7 10 15 10 8 0
15 -2 15 -4z m487 -32 c-3 -3 -12 -4 -19 -1 -8 3 -5 6 6 6 11 1 17 -2 13 -5z
m113 -90 c0 -8 4 -13 8 -10 5 3 9 -1 9 -9 0 -19 -2 -19 -21 1 -18 18 -21 34
-6 34 6 0 10 -7 10 -16z m199 -25 c2 21 41 -17 41 -40 0 -10 5 -21 10 -24 6
-4 8 -10 6 -14 -3 -4 18 -4 47 0 90 15 117 -8 43 -36 -37 -14 -47 -15 -67 -3
-25 14 -30 15 -67 17 -13 0 -20 6 -17 11 4 6 -5 10 -19 10 -14 0 -26 5 -26 11
0 6 -6 9 -13 6 -7 -2 -23 4 -36 14 -23 19 -23 19 -2 19 12 0 21 6 21 15 0 8 6
12 13 9 7 -2 22 5 33 17 l19 21 6 -24 c4 -12 7 -17 8 -9z m-384 1 c3 -6 -4
-10 -17 -10 -18 0 -20 2 -8 10 19 12 18 12 25 0z m-5655 -61 c0 -7 7 -17 17
-24 18 -14 10 -37 -11 -29 -8 3 -17 1 -21 -5 -3 -6 -21 -11 -40 -11 -18 0 -35
-6 -38 -12 -2 -7 -8 -9 -13 -5 -5 5 -1 13 9 18 9 6 17 18 17 27 0 17 44 51 68
52 6 0 12 -5 12 -11z m60 -35 c0 -8 -4 -12 -10 -9 -5 3 -10 10 -10 16 0 5 5 9
10 9 6 0 10 -7 10 -16z m13 -55 c27 -1 -193 -56 -250 -62 -25 -3 -43 -1 -43 5
0 6 7 8 15 5 8 -4 17 -2 20 2 8 14 46 21 38 8 -3 -7 3 -4 13 5 11 10 35 19 52
21 18 2 35 6 38 10 3 3 12 3 20 0 8 -3 14 0 14 6 0 6 7 11 16 11 8 0 12 -4 9
-10 -3 -6 1 -7 9 -4 9 3 16 11 17 18 0 7 2 7 6 -1 2 -7 14 -13 26 -14z m5995
-24 c0 -25 -21 -34 -33 -15 -3 6 -1 10 6 10 8 0 8 4 -1 15 -10 12 -9 15 8 15
14 0 20 -7 20 -25z m556 -11 c9 -3 16 -10 16 -16 0 -14 -43 -5 -48 10 -4 13 7
15 32 6z m-564 -55 c0 -19 -4 -28 -11 -24 -6 4 -8 13 -5 20 2 7 -1 18 -7 24
-8 8 -7 11 6 11 12 0 17 -8 17 -31z m-5003 -61 c-2 -13 -4 -5 -4 17 -1 22 1
32 4 23 2 -10 2 -28 0 -40z m5101 -22 c2 -36 0 -46 -12 -46 -9 0 -16 6 -16 14
0 8 -7 16 -15 20 -8 3 -15 12 -15 21 0 8 -6 15 -12 15 -9 0 -8 4 2 10 8 5 11
10 6 10 -5 0 -3 7 4 15 11 13 16 14 34 2 15 -11 22 -27 24 -61z m-5611 2 c-3
-8 -6 -5 -6 6 -1 11 2 17 5 13 3 -3 4 -12 1 -19z m-510 -14 c-3 -3 -12 -4 -19
-1 -8 3 -5 6 6 6 11 1 17 -2 13 -5z m-50 -10 c-3 -3 -12 -4 -19 -1 -8 3 -5 6
6 6 11 1 17 -2 13 -5z m1050 -26 c-3 -7 -5 -2 -5 12 0 14 2 19 5 13 2 -7 2
-19 0 -25z m-1102 12 c-3 -5 -13 -10 -21 -10 -8 0 -12 5 -9 10 3 6 13 10 21
10 8 0 12 -4 9 -10z m1092 -82 c-3 -8 -6 -5 -6 6 -1 11 2 17 5 13 3 -3 4 -12
1 -19z m-2767 -38 c0 -5 7 -10 15 -10 17 0 20 -16 5 -25 -6 -4 -9 -22 -6 -41
5 -28 3 -34 -13 -34 -13 0 -23 15 -37 58 l-19 58 27 2 c16 1 28 -2 28 -8z
m1735 -40 c4 -6 23 -9 43 -7 20 2 45 0 55 -5 12 -6 23 -5 33 3 8 6 17 9 20 6
3 -3 -4 -10 -15 -17 -12 -6 -21 -19 -21 -28 0 -10 -5 -23 -12 -30 -9 -9 -9
-12 0 -12 7 0 12 -4 12 -8 0 -9 -94 -28 -185 -38 -33 -3 -76 -9 -95 -14 -96
-22 -94 -22 -83 -8 6 7 13 22 15 33 3 23 33 49 66 59 12 4 22 12 22 17 0 6 4
8 9 4 5 -3 13 0 16 6 4 5 13 8 21 5 8 -3 14 1 14 9 0 8 5 15 10 15 6 0 10 -4
10 -10 0 -5 9 -1 20 10 22 22 36 25 45 10z m552 -102 c-2 -13 -4 -3 -4 22 0
25 2 35 4 23 2 -13 2 -33 0 -45z m-2261 -3 c4 -8 -4 -41 -17 -71 -20 -51 -24
-55 -36 -38 -7 10 -13 13 -13 5 0 -21 -54 -9 -58 13 -3 15 0 18 17 13 15 -4
21 0 21 13 0 22 39 72 51 65 5 -4 9 -1 9 4 0 16 20 13 26 -4z m1861 -32 c-9
-9 -20 -13 -24 -9 -4 4 -1 11 7 16 25 16 35 11 17 -7z m-52 -3 c-3 -5 0 -10 7
-10 37 -1 -28 -19 -122 -34 -58 -9 -141 -23 -185 -31 -44 -8 -89 -14 -100 -14
l-20 0 20 11 c11 6 22 14 25 18 16 20 234 59 308 55 23 -1 42 2 42 6 0 5 7 9
16 9 8 0 12 -4 9 -10z m5750 -10 c3 -5 -1 -10 -9 -10 -8 0 -18 5 -21 10 -3 6
1 10 9 10 8 0 18 -4 21 -10z m75 -65 c0 -25 -4 -45 -10 -45 -5 0 -10 20 -10
45 0 25 5 45 10 45 6 0 10 -20 10 -45z m-5453 -12 c-15 -16 -17 -16 -17 -1 0
9 6 18 13 21 20 7 22 -2 4 -20z m-327 7 c-8 -5 -11 -12 -7 -16 11 -11 -54 -74
-77 -75 -18 -1 -17 -2 4 -8 24 -7 23 -8 -11 -14 -20 -4 -56 -10 -80 -12 -62
-7 -92 -12 -104 -16 -11 -4 -15 3 -15 26 0 8 6 13 13 11 6 -1 9 -1 5 1 -14 8
-8 36 10 49 16 13 16 14 -3 8 -16 -5 -17 -4 -9 5 20 21 145 50 219 50 47 1 65
-2 55 -9z m161 -23 c-8 -8 -11 -7 -11 4 0 20 13 34 18 19 3 -7 -1 -17 -7 -23z
m240 -2 c2 -11 1 -20 -1 -21 -3 0 -15 -6 -27 -13 -15 -7 -23 -8 -23 -1 0 5 4
10 8 10 5 0 14 12 21 26 13 29 17 29 22 -1z m-816 -15 c3 -6 -1 -13 -10 -16
-19 -8 -30 0 -20 15 8 14 22 14 30 1z m437 -32 c-8 -8 -9 -4 -5 13 4 13 8 18
11 10 2 -7 -1 -18 -6 -23z m232 17 c-4 -8 -10 -15 -15 -15 -5 0 -9 7 -9 15 0
8 7 15 15 15 9 0 12 -6 9 -15z m-741 -14 c-6 -23 -73 -90 -73 -72 0 13 61 91
72 91 3 0 4 -8 1 -19z m793 -29 c-11 -10 -15 4 -8 28 l7 25 3 -23 c2 -13 1
-26 -2 -30z m924 28 c0 -5 -2 -10 -4 -10 -3 0 -8 5 -11 10 -3 6 -1 10 4 10 6
0 11 -4 11 -10z m-1690 -47 c0 -23 -29 -53 -46 -46 -11 4 -10 11 7 34 23 32
39 37 39 12z m142 -25 c-7 -7 -16 -7 -28 0 -14 8 -13 10 10 10 18 0 24 -4 18
-10z m285 -1 c0 -15 -2 -16 -72 -22 -27 -2 -42 -2 -32 1 9 3 17 9 17 14 0 5
19 11 43 13 23 2 42 4 43 5 0 1 1 -4 1 -11z m-126 -16 c-26 -23 -133 -37 -159
-21 -15 10 -15 10 4 5 13 -3 26 1 34 10 7 8 15 13 19 11 3 -2 26 0 51 4 72 12
75 12 51 -9z m6126 -778 c-3 -10 -5 -4 -5 12 0 17 2 24 5 18 2 -7 2 -21 0 -30z
m-10 -175 c-2 -13 -4 -3 -4 22 0 25 2 35 4 23 2 -13 2 -33 0 -45z m3 -47 c0
-11 -4 -22 -9 -25 -11 -7 -23 22 -15 35 9 16 24 10 24 -10z m-10 -113 c0 -40
2 -85 6 -100 4 -16 2 -28 -4 -28 -5 0 -13 -52 -17 -120 -4 -66 -11 -120 -16
-120 -5 0 -7 12 -4 28 5 33 17 208 19 277 3 102 6 135 12 135 3 0 5 -33 4 -72z
m250 -40 c0 -106 -20 -311 -31 -323 -5 -5 -9 8 -9 35 0 34 -3 41 -11 30 -10
-15 -8 65 5 150 3 19 8 60 11 90 8 68 14 90 26 90 5 0 9 -33 9 -72z m-283
-400 c-3 -8 -6 -5 -6 6 -1 11 2 17 5 13 3 -3 4 -12 1 -19z m-2 -68 c3 -5 1
-10 -4 -10 -6 0 -11 5 -11 10 0 6 2 10 4 10 3 0 8 -4 11 -10z"/>
<path d="M4770 10981 c0 -6 4 -12 10 -16 5 -3 7 -12 4 -19 -3 -7 2 -16 10 -19
10 -4 14 0 13 14 -1 10 -5 19 -10 19 -5 0 -7 7 -3 15 3 9 0 15 -9 15 -8 0 -15
-4 -15 -9z"/>
<path d="M4817 10979 c7 -7 15 -10 18 -7 3 3 -2 9 -12 12 -14 6 -15 5 -6 -5z"/>
<path d="M5671 10414 c0 -11 3 -14 6 -6 3 7 2 16 -1 19 -3 4 -6 -2 -5 -13z"/>
<path d="M6160 10390 c0 -5 5 -10 10 -10 6 0 10 5 10 10 0 6 -4 10 -10 10 -5
0 -10 -4 -10 -10z"/>
<path d="M5680 10381 c0 -5 5 -13 10 -16 6 -3 10 -2 10 4 0 5 -4 13 -10 16 -5
3 -10 2 -10 -4z"/>
<path d="M5701 10333 c21 -27 55 -58 67 -60 19 -4 1 26 -19 32 -10 4 -24 15
-29 26 -6 10 -16 19 -22 19 -6 0 -5 -7 3 -17z"/>
<path d="M5705 10270 c3 -5 8 -10 11 -10 2 0 4 5 4 10 0 6 -5 10 -11 10 -5 0
-7 -4 -4 -10z"/>
<path d="M5780 10251 c0 -6 4 -13 10 -16 6 -3 7 1 4 9 -7 18 -14 21 -14 7z"/>
<path d="M5870 10228 c14 -14 36 -29 50 -32 l25 -6 -25 12 c-14 7 -27 15 -30
18 -3 3 -14 11 -25 19 -13 10 -11 5 5 -11z"/>
<path d="M5895 10060 c3 -5 8 -10 11 -10 2 0 4 5 4 10 0 6 -5 10 -11 10 -5 0
-7 -4 -4 -10z"/>
<path d="M5950 10066 c0 -2 7 -9 15 -16 13 -11 14 -10 9 4 -5 14 -24 23 -24
12z"/>
<path d="M4455 10920 c-4 -6 -4 -10 -1 -10 2 0 11 -3 20 -6 9 -3 16 -2 16 4 0
14 -28 23 -35 12z"/>
<path d="M4410 10880 c0 -5 7 -10 16 -10 8 0 12 5 9 10 -3 6 -10 10 -16 10 -5
0 -9 -4 -9 -10z"/>
<path d="M4489 10889 c-9 -35 -5 -76 6 -76 10 0 12 10 8 36 -5 33 -11 51 -14
40z"/>
<path d="M4444 10835 c4 -24 16 -30 16 -7 0 12 -4 22 -9 22 -5 0 -8 -7 -7 -15z"/>
<path d="M4600 10836 c0 -2 7 -9 15 -16 13 -11 14 -10 9 4 -5 14 -24 23 -24
12z"/>
<path d="M4413 10805 c-3 -9 -3 -18 -1 -21 3 -3 8 4 11 16 6 23 -1 27 -10 5z"/>
<path d="M4442 10789 c2 -7 10 -15 17 -17 8 -3 12 1 9 9 -2 7 -10 15 -17 17
-8 3 -12 -1 -9 -9z"/>
<path d="M4481 10774 c0 -11 3 -14 6 -6 3 7 2 16 -1 19 -3 4 -6 -2 -5 -13z"/>
<path d="M4375 10759 c-7 -10 10 -28 28 -29 12 0 8 17 -7 29 -11 9 -16 9 -21
0z"/>
<path d="M4420 10761 c0 -6 9 -9 19 -8 11 0 17 5 15 9 -7 11 -34 10 -34 -1z"/>
<path d="M4510 10740 c0 -5 5 -10 10 -10 6 0 10 5 10 10 0 6 -4 10 -10 10 -5
0 -10 -4 -10 -10z"/>
<path d="M4355 10700 c-16 -7 -17 -9 -3 -9 9 -1 20 4 23 9 7 11 7 11 -20 0z"/>
<path d="M4444 10685 c4 -25 14 -28 26 -6 9 18 8 21 -9 21 -11 0 -18 -6 -17
-15z"/>
<path d="M4600 10680 c0 -5 5 -10 11 -10 5 0 7 5 4 10 -3 6 -8 10 -11 10 -2 0
-4 -4 -4 -10z"/>
<path d="M4454 10634 c3 -9 6 -32 6 -51 0 -44 11 -38 12 6 1 17 5 28 10 25 5
-4 4 3 -4 15 -15 24 -33 28 -24 5z"/>
<path d="M4671 10634 c0 -11 3 -14 6 -6 3 7 2 16 -1 19 -3 4 -6 -2 -5 -13z"/>
<path d="M4417 10633 c-10 -10 -8 -41 3 -48 5 -3 8 7 7 25 -1 16 -2 30 -3 30
0 0 -4 -3 -7 -7z"/>
<path d="M4806 10607 c3 -10 9 -15 12 -12 3 3 0 11 -7 18 -10 9 -11 8 -5 -6z"/>
<path d="M4355 10600 c-3 -6 1 -7 9 -4 18 7 21 14 7 14 -6 0 -13 -4 -16 -10z"/>
<path d="M4685 10600 c3 -5 11 -10 16 -10 6 0 7 5 4 10 -3 6 -11 10 -16 10 -6
0 -7 -4 -4 -10z"/>
<path d="M4491 10574 c0 -11 3 -14 6 -6 3 7 2 16 -1 19 -3 4 -6 -2 -5 -13z"/>
<path d="M4600 10578 c0 -8 7 -21 15 -28 19 -16 19 -1 0 24 -12 16 -15 17 -15
4z"/>
<path d="M4410 10550 c0 -5 5 -10 11 -10 5 0 7 5 4 10 -3 6 -8 10 -11 10 -2 0
-4 -4 -4 -10z"/>
<path d="M4561 10534 c0 -11 3 -14 6 -6 3 7 2 16 -1 19 -3 4 -6 -2 -5 -13z"/>
<path d="M4740 10539 c0 -5 5 -7 10 -4 6 3 10 8 10 11 0 2 -4 4 -10 4 -5 0
-10 -5 -10 -11z"/>
<path d="M4390 10520 c-8 -5 -10 -10 -5 -10 6 0 17 5 25 10 8 5 11 10 5 10 -5
0 -17 -5 -25 -10z"/>
<path d="M4545 10500 c-3 -5 -1 -10 4 -10 6 0 11 5 11 10 0 6 -2 10 -4 10 -3
0 -8 -4 -11 -10z"/>
<path d="M4620 10489 c0 -5 5 -7 10 -4 6 3 10 8 10 11 0 2 -4 4 -10 4 -5 0
-10 -5 -10 -11z"/>
<path d="M4720 10485 c0 -5 5 -17 10 -25 5 -8 10 -10 10 -5 0 6 -5 17 -10 25
-5 8 -10 11 -10 5z"/>
<path d="M4470 10455 c0 -14 3 -25 8 -25 4 0 7 11 7 25 0 14 -3 25 -7 25 -5 0
-8 -11 -8 -25z"/>
<path d="M4690 10465 c-8 -9 -8 -15 -2 -15 12 0 26 19 19 26 -2 2 -10 -2 -17
-11z"/>
<path d="M4511 10456 c-7 -8 -8 -17 -3 -20 6 -3 13 1 16 10 9 23 2 28 -13 10z"/>
<path d="M4606 10457 c3 -10 9 -15 12 -12 3 3 0 11 -7 18 -10 9 -11 8 -5 -6z"/>
<path d="M4647 10447 c-3 -8 -2 -19 3 -26 5 -9 9 -7 13 8 6 23 -8 39 -16 18z"/>
<path d="M4605 10420 c-3 -6 1 -7 9 -4 18 7 21 14 7 14 -6 0 -13 -4 -16 -10z"/>
<path d="M4851 10635 c0 -13 28 -50 33 -44 3 2 -4 15 -14 29 -11 14 -20 21
-19 15z"/>
<path d="M7490 10296 c0 -2 7 -9 15 -16 13 -11 14 -10 9 4 -5 14 -24 23 -24
12z"/>
<path d="M7530 10246 c0 -2 8 -10 18 -17 15 -13 16 -12 3 4 -13 16 -21 21 -21
13z"/>
<path d="M4050 8713 c0 -13 5 -23 10 -23 13 0 13 11 0 30 -8 12 -10 11 -10 -7z"/>
<path d="M4875 8649 c-4 -6 -5 -12 -2 -15 2 -3 7 2 10 11 7 17 1 20 -8 4z"/>
<path d="M4925 8520 c3 -5 8 -10 11 -10 2 0 4 5 4 10 0 6 -5 10 -11 10 -5 0
-7 -4 -4 -10z"/>
<path d="M4355 8360 c-3 -5 -2 -10 4 -10 5 0 13 5 16 10 3 6 2 10 -4 10 -5 0
-13 -4 -16 -10z"/>
<path d="M4068 8333 c7 -3 16 -2 19 1 4 3 -2 6 -13 5 -11 0 -14 -3 -6 -6z"/>
<path d="M3530 8494 c0 -8 5 -12 10 -9 6 4 8 11 5 16 -9 14 -15 11 -15 -7z"/>
<path d="M3420 8086 c0 -2 7 -7 16 -10 8 -3 12 -2 9 4 -6 10 -25 14 -25 6z"/>
<path d="M7475 8300 c-3 -5 -1 -10 4 -10 6 0 11 5 11 10 0 6 -2 10 -4 10 -3 0
-8 -4 -11 -10z"/>
<path d="M8420 8184 c0 -8 5 -12 10 -9 6 3 10 10 10 16 0 5 -4 9 -10 9 -5 0
-10 -7 -10 -16z"/>
<path d="M7575 8110 c3 -6 15 -10 26 -10 11 0 22 -7 26 -16 5 -13 7 -13 14 -2
17 25 9 35 -32 36 -24 1 -38 -2 -34 -8z"/>
<path d="M7826 8015 c-11 -8 -29 -15 -40 -15 -13 0 -17 -3 -10 -10 13 -13 48
-2 62 21 14 23 13 23 -12 4z"/>
<path d="M7777 7923 c-4 -3 -7 -11 -7 -17 0 -6 5 -5 12 2 6 6 9 14 7 17 -3 3
-9 2 -12 -2z"/>
<path d="M9422 7620 c0 -14 2 -19 5 -12 2 6 2 18 0 25 -3 6 -5 1 -5 -13z"/>
<path d="M8513 7563 c-19 -7 -16 -26 6 -40 17 -11 19 -8 23 18 4 28 -2 33 -29
22z"/>
<path d="M9408 7153 c7 -3 16 -2 19 1 4 3 -2 6 -13 5 -11 0 -14 -3 -6 -6z"/>
<path d="M9824 6970 c-27 -11 -35 -22 -25 -38 6 -9 15 -10 34 -3 19 7 24 15
20 30 -3 12 -6 21 -7 20 0 0 -11 -4 -22 -9z"/>
<path d="M10059 6503 c-10 -2 -15 -11 -12 -21 3 -14 12 -17 37 -14 27 3 33 8
29 23 -5 18 -20 22 -54 12z"/>
<path d="M6760 8239 c0 -5 5 -7 10 -4 6 3 10 8 10 11 0 2 -4 4 -10 4 -5 0 -10
-5 -10 -11z"/>
<path d="M7110 8149 c0 -5 5 -7 10 -4 6 3 10 8 10 11 0 2 -4 4 -10 4 -5 0 -10
-5 -10 -11z"/>
<path d="M6887 7939 c7 -7 15 -10 18 -7 3 3 -2 9 -12 12 -14 6 -15 5 -6 -5z"/>
<path d="M6930 7932 c0 -12 19 -26 26 -19 2 2 -2 10 -11 17 -9 8 -15 8 -15 2z"/>
<path d="M6438 7893 c-34 -9 -18 -23 25 -23 39 1 41 2 23 15 -11 8 -22 14 -25
14 -3 -1 -14 -3 -23 -6z"/>
<path d="M6266 7868 c5 -7 9 -19 9 -27 0 -23 18 -22 50 4 l30 25 -28 -5 c-15
-3 -37 0 -48 6 -17 9 -20 8 -13 -3z"/>
<path d="M6510 7870 c0 -6 7 -10 15 -10 8 0 15 2 15 4 0 2 -7 6 -15 10 -8 3
-15 1 -15 -4z"/>
<path d="M6240 7820 c0 -5 5 -10 11 -10 5 0 7 5 4 10 -3 6 -8 10 -11 10 -2 0
-4 -4 -4 -10z"/>
<path d="M6475 7730 c-4 -6 5 -10 19 -10 14 0 26 -4 26 -8 0 -15 84 -96 117
-114 30 -15 31 -15 36 2 3 11 -2 21 -10 24 -9 4 -13 13 -9 21 6 17 -47 55 -77
55 -12 0 -16 5 -11 13 5 9 4 9 -6 0 -10 -9 -18 -8 -38 7 -28 22 -38 25 -47 10z"/>
<path d="M6128 7632 c-19 -4 -24 -27 -8 -37 6 -3 10 0 10 9 0 8 6 16 13 19 17
6 5 14 -15 9z"/>
<path d="M6077 7624 c-8 -8 1 -24 14 -24 5 0 9 7 9 15 0 15 -12 20 -23 9z"/>
<path d="M6585 7350 c3 -5 8 -10 11 -10 2 0 4 5 4 10 0 6 -5 10 -11 10 -5 0
-7 -4 -4 -10z"/>
<path d="M5520 7590 c0 -5 6 -10 14 -10 8 0 18 5 21 10 3 6 -3 10 -14 10 -12
0 -21 -4 -21 -10z"/>
<path d="M4830 7469 c0 -5 5 -7 10 -4 6 3 10 8 10 11 0 2 -4 4 -10 4 -5 0 -10
-5 -10 -11z"/>
<path d="M5320 7480 c0 -11 14 -11 50 0 22 7 21 8 -12 9 -21 1 -38 -3 -38 -9z"/>
<path d="M5985 7370 c-3 -5 -1 -10 4 -10 6 0 11 5 11 10 0 6 -2 10 -4 10 -3 0
-8 -4 -11 -10z"/>
<path d="M6530 7091 c0 -5 5 -13 10 -16 6 -3 10 -2 10 4 0 5 -4 13 -10 16 -5
3 -10 2 -10 -4z"/>
<path d="M2970 6359 c0 -5 -5 -7 -12 -3 -7 4 -8 3 -4 -4 5 -8 -1 -12 -18 -12
-31 0 -56 -9 -56 -21 0 -5 10 -4 23 1 12 5 39 11 60 15 36 6 55 35 22 35 -8 0
-15 -5 -15 -11z"/>
<path d="M3133 5095 c-10 -10 -9 -14 2 -19 8 -3 15 -10 15 -15 0 -6 -7 -8 -15
-5 -17 7 -21 -11 -4 -22 6 -3 9 -15 6 -25 -3 -12 0 -19 9 -19 8 0 14 10 14 24
0 13 3 39 6 57 4 24 3 30 -4 20 -8 -12 -11 -11 -13 2 -3 12 -6 13 -16 2z"/>
<path d="M3290 4689 c0 -5 5 -7 10 -4 6 3 10 8 10 11 0 2 -4 4 -10 4 -5 0 -10
-5 -10 -11z"/>
<path d="M3213 4037 c-13 -5 -25 -18 -28 -28 -4 -11 -13 -26 -22 -35 -14 -13
-14 -17 -2 -25 9 -6 10 -9 2 -9 -7 0 -10 -7 -7 -15 9 -23 23 -18 30 13 9 35
34 85 48 94 18 12 2 16 -21 5z"/>
<path d="M10488 5153 c7 -3 16 -2 19 1 4 3 -2 6 -13 5 -11 0 -14 -3 -6 -6z"/>
<path d="M10579 4991 c24 -22 51 -28 51 -12 0 5 -8 11 -17 14 -10 2 -27 8 -38
12 -17 6 -17 4 4 -14z"/>
<path d="M10750 5024 c0 -17 27 -37 42 -31 9 3 6 7 -7 13 -11 4 -23 12 -27 18
-5 8 -8 8 -8 0z"/>
</g>
</svg>
